<svg version="1.1" xmlns="http://www.w3.org/2000/svg" viewBox="0 0 1386.4136252390053 925.7684999999999" width="1386.4136252390053" height="925.7684999999999" filter="invert(93%) hue-rotate(180deg)">
  <!-- svg-source:excalidraw -->
  <!-- payload-type:application/vnd.excalidraw+json --><!-- payload-version:2 --><!-- payload-start -->eyJ2ZXJzaW9uIjoiMSIsImVuY29kaW5nIjoiYnN0cmluZyIsImNvbXByZXNzZWQiOnRydWUsImVuY29kZWQiOiJ4nO2d23LySJKA7/spOjw3s1x1MDAxMc0/dT7M1Vx1MDAxOINcdTAwMDGDXHJcdTAwMThsgzcmXGJcdTAwMDHijMDi7I5+mr3YmIt9in6xLWH/RmAkXHUwMDBi2eDCbaKjf1x1MDAxYkmQlvKrzMrKzPr9l19/PVx1MDAxOS+G5sk/fz0x5zWj167bxuzkN+f9qWmP2lx1MDAwM0tcdTAwMWRCy99Hg4ldW57ZXHUwMDFhj4ejf/7jXHUwMDFmqyt+1Fx1MDAwNv2nq8ye2Tet8Uid99/q919//X35f9f32GZtbFjNnrm8YHlo9VVQSr759tXAWn6vYFx1MDAwNHJM4eqE9iimvm9s1tXRhtFcdTAwMWKZqyPOWydcdTAwMTdW/zpR7l/Z5WQxdW5cdTAwMGYj2YdiZPW1jXavV1x1MDAxOC96T3+UUWtNbJdQo7E96Jp37fq49fNcdTAwMWW43n+5bjRQt2B1lT2YNFuWOXJuXHUwMDAweHl3MDRq7fHC+Vx1MDAwM8Hq3ae74D5vrn7DXHUwMDE4/Fx1MDAwMK7X6puX12P5XHUwMDAzSohcdTAwMDChQkgg2YZcXGeD3sB25Prb09UryapGrdtU4ln1l3PGtmGNhoatXHUwMDFl2Oq82fNfXGZcdTAwMTFCP4RknEiKoFx1MDAxNEK8nNIy283W2LkrhPxcdTAwMTBAcElcdIRAqp9W4pjLx4I4kuqDIHw54MgwTNWXXHUwMDFh8u/Nu9oy7OHz3TtcdTAwMTk5v7jkd0SPu9RrdfFkWDeetFx1MDAwMDIqMJWAYM5X8vbaVldcdTAwMWS0Jr3e6r1BrbtSnOW7f/y2XWPH5ny8VVkx8lRWyFx1MDAwMaOIQUhcdTAwMDNra6dfRI30Q7Nynlx1MDAxN6QyXHUwMDA0l7g77IbTVnhAbZU/XHUwMDEw4lx1MDAxNGPCgFx1MDAwMESuayvhP7BgXGJjxCSVnG1i5FLXKkeCvkNdJXitn5ht6iPjQnAoUFxifVxcXG7jo4/PXHUwMDA3Vlxu5Hq201x1MDAxOLGT0Vx1MDAwZehcdTAwMTZcdTAwMDUs5K+uZrX7Zvbls9a0zbDtwezk5chcdTAwMWbPP/lpu1x1MDAwMFx1MDAwMO6i7SudXHUwMDFhWONC+9H5XiTW3j03+u3eYk2Vllx1MDAxOChcdTAwMDFcdTAwMWJcdTAwMTOrpjTdsNuDiluZqsbIVN+9/DC2dtVpr910gDnpmY11ksZtZUJeXHUwMDBlj1x1MDAwNy7ea0pcbkN9nJ2qb/41XHUwMDAzu91sW0avuF2iUDBT10C7wTJRystcdTAwMThgq1vxXHUwMDE2yk2cJ7ZIXV9ESa522ojUJpFcdTAwMDdDd8NDXcbkXHReXHUwMDFm4/JOWlx1MDAxOVx1MDAwZVx1MDAwMiukRFx1MDAxMMmxWI0qXHUwMDFmZT3W9On99uN9RFmDvqlcdTAwMDNHSzlC0UOA9KJHjbhQwcODXHUwMDFiwtPsZXrRWqSMeeuMXGZuQf4mNq3rTo+yb5umb3+2XHUwMDBl0yD4XHUwMDEwgihcdTAwMTNcdTAwMTjjr03PaFBVt0lcdTAwMTOEVsKE48j1sDY9Slx1MDAwMoCyQ2RcdTAwMDczVL7JTKNcdTAwMDCMyqJcdTAwMTGfXHUwMDFiVzzbppOh7iBcdHo4kFx1MDAxOFx1MDAwYsKRci05ULNPzr82SGbfaPd0gOhJkHBcdTAwMDBx7ylcdTAwMTkjWI3SSMrAXHUwMDAwpVNVJC7P7rrdSKzL7u3aNFmzdFx1MDAwN1xiqpFigyCxN4IgRIFcdTAwMTBcdTAwMTJUXGLM6Vx1MDAxNydorLRJnaKFJXqRJVx1MDAxNEeUUE+OhHLK1ZiIglx1MDAxYqL4XHUwMDE1TYrWhE3uRzRyVYrARime1J4j7Hrw++ZcYkFcdTAwMTmII658aVxiuMtGfkmQ1LdcdTAwMWKVmlE3nL9DXHUwMDA3mtZcdTAwMDXyRWop4Fx1MDAxNqRcdTAwMTDy9u0kxFx1MDAwMlBcdTAwMWXcMsH2JVx1MDAxZD9MjFm2+XBfSrXi8W42rjtRVGxEXHUwMDE4sPRcdTAwMDbqveHr1zghQl67dlx1MDAxMKlZXHUwMDEyXHUwMDE1XHUwMDFmXHUwMDFmXHUwMDBm3Fx1MDAxN0+jsWGPo22r3raam5eYVt3jSE8p7tmg32+PlVx1MDAxOLlB21x1MDAxYW+esfzcUyf42DKNVzyoT/Y8NnQ+bj1cdTAwMDS6+unXlVx1MDAwZSx/efn5379tPTtcdTAwMDLdp6tHtrrgXHUwMDE397+70yc2311cdTAwMTk0QLjyT3aYWc1wccZjN6PIcMpb54nzh4jk+ocoXFzLM0/4+dizd+K3JVx1MDAxOI/IlplcdTAwMTVFgnOAQ/iF3/g9XHUwMDFm+1D81s5WT+yj6IOe8UHlaVxuXGbkXHUwMDBlXHUwMDBiZeVzkcK0W4v3k5aZj5VcdTAwMWHFYpPqXHUwMDBlnyCbYVxyn7WwPcDnNrXPS7NcdTAwMDBcdTAwMTGIXHUwMDA05CHig9/wPVx1MDAxZtsjfFh+XHUwMDE0fNxcdTAwMTM+jDhCgNGVXG68XHUwMDA1X24ys+ai1Vx1MDAxY8RSzU69clx1MDAxZDUv+Znu8EE1l/tU+ohrRf7Z9Fx1MDAxMVxuJGdEftOnJX1cdTAwMDR+XHUwMDEwfZh5Op5cdTAwMTSpxyElXG5OXzOHeYFfp7KtaK2Ur4BcXLRUmWlPXHUwMDFmRptcdTAwMDHJzVx1MDAwNJWD06dcXE7KMFxyXHUwMDEzR/mm7/nYMdBHmWdaXHUwMDA3l5hJXHUwMDAwUXDHkzFzbFxcnMGWMTGS1eStPUlccrK604c3TZ/YY9Bla1x1MDAxOHMlz8u0XHUwMDBmXHSJ1OD3TZ8m9LlcdTAwMWbcxlx1MDAwNe/Cj2Cy+e5L1Fx1MDAwNVx1MDAwMs7J2lx1MDAxMPxcdTAwMTZ/mXT6SnmepTbsZ0q5diqJU22pP3/rxlx1MDAwZmGf9excdTAwMGbI2VxywFx1MDAxZlx1MDAwMlKNsMRcdTAwMWTw+ubvk/lbPbiNXHUwMDBi3sef8I56Mom5hGKHuZ9pP/SNZtW+P8+fXHUwMDBlotVavV68y2vPXHUwMDFmkj+oK59+pfNLXHUwMDFhXHUwMDA13pDkQ2lcXI1+PtZcdTAwMTAgrGZcdTAwMDFcdTAwMTiEyHJ8Kyf5I3Pk/0IsXHUwMDEyj1x1MDAwYt7HovRcXFJHXHUwMDAwSSAkXHUwMDA1wWtb6lx1MDAwZlx1MDAxMXhqNvPDPLxcdTAwMThcXMfUze0ltJ9cdDq1Ld4sui3lJ1lGipiQXHUwMDFjoo9cdTAwMGbKfKO4fFx1MDAxZNYselbuuHJXNs1cIpVcXEjA2Vx1MDAwZetcdTAwMTHRi9N8orQon1+WK1x1MDAwNTRcdTAwMDfzYmGuO4pcdTAwMDRvJLdIZSb3hlx1MDAxZtq2XHUwMDFjvyW7hSNM5JGm+4O1d32SWyDamtHimjpcdTAwMWZcIqNFSVx1MDAxMYpcdTAwMWThiVx1MDAwZYNEYjW3XGKexTJNX5zaNH/G+90q6opiI2OXY/qTs17khsheydlcdTAwMTbQfEVcdTAwMGVS30FcdTAwMDRl8Dhz/YOjg7VAXHUwMDA3fzQ6glx0zNaWYt9Cp3b7wG8qdTab54t9Mk2KVjMjjlx1MDAwZVx1MDAxZEn2iM62WORcdTAwMTajI526ZcHC5KBcdTAwMWNcdTAwMTU6RFx1MDAwYnTIR6ODXHUwMDE441x1MDAxNFNcdTAwMWU8eSt5mTcto5aKi8J4VpCDi65M32uPzkZSPyb089FBlJFlh4Avjlx1MDAwZdVcdTAwMDJcdTAwMWRcdTAwMWFcdTAwMGVcdTAwMWTo+kNf1ZSpp4fcXHUwMDE1gm+GXHUwMDFkzmrXNi5fpU07OWuUbvpccmZqn/7BwDo7XGLAPbKzrahsXHUwMDBiO4QzTIlcYpP/cUzsXFxcZkbmsKVcdTAwMDM/z5KEY4h4xtGZXHUwMDE0UKp7XHUwMDFh3P6cV6L4XCI3uoolePkqWeRk+Jjo6M/Q+jIyXCL7I4hcdTAwMDYjiEkgKeFhgnWH7C3zPn5Orbr953904OdZknD8UJ/YN5dUXHUwMDEyd+HmW1x1MDAwMI1SlXRZlsfzVrQ5n82a8Wphon17jVdcdTAwMDDJPVx1MDAwMlx1MDAxNMx9c3qaSCTDpGFcdTAwMWNcdTAwMGZAZ3/+nzVuXHUwMDFiOlx1MDAxMPRTlHBcYnFvhCCSzlxmaIdUXG6zvpAtkO08jmA/m04uXHUwMDEyYN7o6Y5cdTAwMTB1OUtPcyCyN4REIIQoZ45Ws4+fXHUwMDAwaUTQuWlbhlXXXHUwMDAyoVx1MDAxN1lCunHeJZhQueKCcFx1MDAxMdyPK9RLaF7OM5KtLKpGZZEyq7e3ujPE0fqi637XfeSWPk9bXGZcdTAwMTFkTFCEvnpcYu56UFfqPDFHOpC0XHUwMDEyJiRKzFx1MDAxMyXJiIRcdTAwMDLA4Fx1MDAwYkH3vFq5v7zE9VxmrFxcn1niun2aXHUwMDE564/Sej0lXCJsjyi59NRcdTAwMDcl5Vx1MDAwNlx1MDAxMCkh+OIkndum2TcsXHUwMDFkOPopSkiKPNvVMMJcdMRyh9jcZbdeu1x1MDAxYqdq8HFcZpuV7Kx1YTPte1x1MDAwMnC83lx1MDAxM1x1MDAwMEm0R4hcXFxyaHxXU6ngXHUwMDA0iK++mlx1MDAxYZtMje1ccp9cdTAwMGXM0JMg4Vxioj5cdTAwMTnm6pZC4mbszYZPcdFoJVhqejFcdTAwMDejRbR6OzpcdTAwMDPaR1x1MDAxNvhGn1x1MDAxYUzAPu1QoIRcdTAwMDRIlU9cdTAwMDeduu6vjdCladX18OeeJVx0XHSRd9c05chRskOSuFx1MDAxNYk/pOeMPJZcdTAwMWUzMczHjz1cdTAwMTLXvkjDbWb3PyuCwZJ6iFx1MDAxMMqV41+coM7gX02n39/LXHUwMDFlXHUwMDAyz7f0szhakydcdTAwMWNN3lx1MDAxNb9cXN1ZSlx1MDAwMVx0jlPkXCJi37bKxrSTapu15C2dkfql7jhcdLlRZbHnZIVg4W7OKcVqKPviQFx1MDAxOVbdNp2sJr242iZWOLy4d01cdTAwMTPCjPHdWlx1MDAxM8ZcdTAwMTOMXHUwMDE2m1x1MDAxMqWSo4FozDOD9m1Ud77kq7WkfU6aIN9SOrHFXFwhXHUwMDA2XHUwMDA1Z189oaHWtuqLf1xyJuPeYNDVXHUwMDA1rtdChfRcdTAwMDO90+yUM1x1MDAwZqhEOPhcdTAwMWHTYm7M7s8vzivF7E2ZnyfT9c60pDtawjWffJpM4X1md/MtXHUwMDE1gttMXHUwMDE34UgygY+z7Wdgtlx1MDAxYc+rO/3lXFzmX1x1MDAwYqM1XHUwMDE4ONpcZqFcdTAwMGWQ+UhcdTAwMTeONu9m71x1MDAxY0pOXHUwMDAxkMH9xHTBbFx1MDAxNya1SD/LTu1KY1x1MDAxMS9fXHUwMDEz7SPor1pVI1dJ4CeZMWXDKCOAffFcYvrfMf0vKdVkXHUwMDA0RSAhWiS4bopcdTAwMTRcdTAwMGUq4Z3tXG5cdTAwMThDXHUwMDAyXG5cdTAwMWF8XephXHUwMDFjvb+9v0xW6kZbdCSLV/no6uiowmSPRe4sWGlcdTAwMWailDBcdOiXzpT4O8ZKg1x1MDAxMVx1MDAwMFx1MDAxMUgp04OpNYnCIcW9syY4hU5cdTAwMWLJXHUwMDFkXG6XeqedhJ0kViZcdTAwMWFcdTAwMWLSYvq2l2J350eHlJpx7Vx1MDAxMalAq1ScXG5cdTAwMDJcdTAwMDBBf1x1MDAwMaKUTYhcdTAwMTDGpD5EvUhcdTAwMTSSKM+OnIJcdTAwMGJJMaLBI1x1MDAxOH2rXHUwMDA2Z2Vukcyg1Vx1MDAxZszM2/vRo/bl56+B8ttt7t1AXHUwMDA1SkOiXHUwMDEyY2dcdTAwMTPLL51P/nfClfpShFwiREo9TNS6ROGA8ltcdTAwMDXmklBcInZoM2bl71x1MDAxZcxcdTAwMDSCXHUwMDA1Y4hr43F9jtJcdTAwMDXtgcJ8o8H0npewXHUwMDAy1WgwpiayjJEvXHUwMDFlXHUwMDEzRFx1MDAwMIFcYqDqP1x1MDAxZIBySVx1MDAxM1x1MDAwZSbpOYXCjDtcdTAwMWT7RPCMilojXrbjXHUwMDAznpyK6Xwx6uBErKp9z0xcdTAwMDWTO5Vv7/ZcdFx1MDAwNcvtU6NcdTAwMWNhYbYuPlx1MDAxZfP0pLtIK5JQeJJcXCGnTT+PqMmwoCS4n3cpXHUwMDEzlcZZrjh/SNXGqFx1MDAwNK3zbqxxXHUwMDA0JMlNkuRcdTAwMWVjfMHMXHUwMDEywZhD9sWnTl/NKHl7eMrBg8C9rv9m5cYlPZvlr1x1MDAxMlnavS2lo+3rU3mlffNcdTAwMTSIXHUwMDA12kBcdO9xXHUwMDFig4AocUIlXHUwMDE0XFx+fLj8XHUwMDFipZ9K8sEoYea5ylx1MDAwYimmXHUwMDEw71TNjuhdLN04m9fKuTyMJdpcdTAwMTPUtrRcdTAwMGY/XHUwMDEwSTdQYnyPbZm3bZL6XHUwMDFhJVx1MDAwMShcdTAwMDXAvVHQXHUwMDAxUFx1MDAxMlJgwFx1MDAwZYdSdmja6jlcciw9Ms/d4oSDXHR6p8464VlGdtldp5fqpM9cdTAwMTfxZjRv1Yy7capcdTAwMTlrNqD+MK2nTHC0z5RcdFxiXHUwMDAzTZYgRU6Pc45cdTAwMGZcdTAwMWN6ODRPcSW/Mf7zP812bftGqVx1MDAwN1x1MDAwNmpNnlBEIemd31x1MDAwNyWkQO7S7KuYTlx1MDAwZVGjdyPOoNlcXOBcdTAwMDU+Zy3tXT1cbtaNk4B8n0W6wXKQoFx1MDAxM0VcdTAwMDWhtos7JqAuXHK7a46drslcdTAwMWHQtFx1MDAxMmYrSs97XHUwMDAxT1xup+BcdTAwMTHMUGVxjlx1MDAxYvO80TJm1dXX/eTNNmvjJ3Vb0zWM2Fx1MDAwZqjuMSecXHUwMDAxKcl6OVx1MDAxZYXkXHUwMDA3gezni79SXHUwMDFlXGb4XHUwMDBm6X691iVM/PT9o7T5s0lcdTAwMGVcdTAwMGLDS1x1MDAxYkrgrD6x152pXHUwMDFk59SnXzVcdTAwMTSASXfCvfeIuJNbKCljZFx1MDAwN+pCjfVcdTAwMDJ7/2FcdTAwMDAyzsRcdTAwMGVtgXrwvNpJ5YxcdTAwMWNv3Ey77PFcdTAwMWGlXHUwMDFhZX1cdTAwMTTEY6iHYFxyP77uS1FEt/P3XG6bd25A71o98tl/XHUwMDFlQTX+XHUwMDAz4d7A7XjmKIF3n1x1MDAxZpljdce2XHL/XHUwMDA33nX+SVx1MDAxMF+yvHabXHUwMDEwwDNehtRI41SWg+B5cFWaMU7nXHUwMDEznszI+K19c/pcdTAwMDBcdTAwMTdN/XebQMLPsnH4Q1x1MDAwNlwi653uXHUwMDE1XHUwMDA2W7JcdTAwMGbAJllcdTAwMTiLZSfVj9+S6U2wZFx1MDAxOLC++M5cdTAwMTOuh7Zx/i/uf3elkknPXHUwMDA1IaWKRHBcYnFwKm+M0rybS1qAmzdkJKPW5a2pfamtP5VcZspDUVx1MDAxOWRvJuV4XHSCZZhcdTAwMDbH31Quj30wlXvZmYlJ715Ggik3lFwiXHUwMDE4PIaX4YXHzGNmXHUwMDE2S49irXx/UpPtkvZcdTAwMTW7XHUwMDE48Vx1MDAxZsybSkZcdTAwMGZF5Vx1MDAxNjf0XHUwMDE1lVxuXHUwMDEzgCFcdTAwMDHioNs0fWPpjSX1OP9dWHLg2fFcdTAwMTJihFx0R1x1MDAxNFx1MDAwNs/qiz1cZkf9SY9n++10MUFjV9NYTPtSXHUwMDBlJzjjjSWHSCdjqYikkHNcdTAwMTkm5P6N5fKYTtbSOz7vXVx1MDAwZaLGZIIggcHj8/a4yVx1MDAxM8lcdTAwMTmm6dNMJtmOX4qr+I3uWFx1MDAxMlx1MDAwMdew3Fxm2lxiXHUwMDE0MGjz3rUwvMVcXG7vlFx1MDAwZSlHn7CwXHUwMDFjistwjdLr/bbVdlaf/vzfP/9Hi7WwTZHC4cY8raDgiFx1MDAwMShl8Fx1MDAxMOlwKFx1MDAxYtNC8e7uOjmfysp1VaKk9sVXXHUwMDE0rlx1MDAxYsH1rptcZsPDwFx1MDAxNqwqi1x1MDAwMmdve3zYTVx0XHUwMDBlzdqtsmGGXHUwMDE2Xc+eJVx05V9cbuFJXHUwMDE2Q0xccpd4XHUwMDA399KG6YvY6U0q1bnvlrvXiVM+7GjfXGZ6I1x1MDAxNuMqOlu6l/RgsVx1MDAxOLS2hkiDTFx1MDAwMlx1MDAxMaBcYlPmnlx1MDAwMnx7m5/qbXo9xI3LXHUwMDAzOZ9ezCqd9t6JXHUwMDA37MjsZcm+r+TPjDKVd+yuXHUwMDFlL8zNO6w/s9wnfipcdTAwMDA/jDVcZjYllMAxh/B7RqhcdTAwMGKje5lcdTAwMTFi74IxXHUwMDA0XHUwMDAxloKQXHUwMDFkOtlMYqzXvjfzXHUwMDE3XHUwMDBmXHUwMDAzi1OcXHUwMDFlXHUwMDFi96VH3alUZsjHR+VcXCtcdTAwMWbVMZ1cZlx1MDAxMiS+9ITwazipilx1MDAxZu/FXHQkiXDydHZIh4zVUoPCY6OZuJGTeSojc+1cdTAwMWLte7JcdTAwMTFcdTAwMGV8U9TYYeDa0rRcdTAwMTe/TpFxXHUwMDFhXGYxXG7At1uqhclbO1s9rlx1MDAwZjJ5kFxiTyxcdFWTR4RJ8IV8XHSql3Jyfd6tRivt1vVtd5aahsxcXNusrdyjI4p9XHUwMDEzR1x1MDAwZpW4trWZ9mssXHUwMDE1lepMzuBcdTAwMWWW8l906neXrv3MnLopXHUwMDE1z3BucjaDV5HiXHUwMDA1sLA9QSdupXzRNcNcdTAwMDHi5OXIXHUwMDFmP1x1MDAxNdSTeuVYXHUwMDAzZcffa1F3y4uruLXok1PjXHUwMDFjWcJ5rMCzXHUwMDAxXHUwMDBmZELpM0AsOL7jfGxcdTAwMTFrlmQ52pqNXHUwMDFlTyfJrkG073GAJfRZWlTqdSCPNYjDXG5cdTAwMTHlysS53eov6LBq0eQ0ZC9T7LNcdTAwMWRcdTAwMTijXHUwMDE0s51cdTAwMDIzVjRmTe9cdTAwMTa9h4KVy1xcXHUwMDE1m2PcuKprXHUwMDBmlPBcdTAwMGLMMFxmXHUwMDBltCZcdTAwMThoSVAoWSQ/cDvGQ1x1MDAwM4V0XHUwMDAwXG75le7UpqfNrHEmc51palgo5caZXGZNvy7dWafuSdl8syg531x1MDAxZblcdTAwMGaoJN9VOl5VOpxcYqJuO37lPixvqmdomiDg7LVcdTAwMWNoM7dcdTAwMTDVcaGQ+kmJO+K9K2Wh4NnO4lx1MDAwZUhhP6Qqj4NzzIyLUvZxJq9vczdcItefXHUwMDA0Q8pv/HaKmv2R8q+i/EbKXHUwMDBiKcFcdTAwMTFcdTAwMDVcdTAwMTTgV3X0S6Q83VxuxIRkmKAgyVx1MDAwZrsj5drlLFx1MDAwNFLk6JBcIn5I5WJ1XHUwMDE2T9410oPs4rJZKl9Op/XTXHUwMDBmQIp5rC+v0pu+kVxuhVx1MDAxNICIXHUwMDAwdUu3WiniPfWlkkiMKNWRKXp0THm053liql3NXHUwMDFheJG4XHUwMDE3pNo469+OXHUwMDEzjeI4XHUwMDFhjCm/sJuA7NtM7ac+m1x1MDAxMq7GM/oqZ2h50Hv2SzknSPmNYVxutPfNXHUwMDE0OzqmPPpcdTAwMDM/MXU6fKh1K3akVVwi1UiWxLNM2I+BmMLEjynhRorJLVCJLWEsslx1MDAwYlWmmrL9XHUwMDE1qVx1MDAwMlx1MDAxNFx1MDAwYqhu/1bnXHUwMDBmeSeaM67+w5BcdTAwMDWJKVx1MDAxZKp18MsuRlx1MDAxM2vZUcpuXHUwMDBmtvLlWpzYI1+uueYue1x1MDAxY7lk30ram1x1MDAwYmPIc1x1MDAxMow5QERcIlx1MDAxNDywfkfwKVx1MDAxYsCm1TFJtFS8wtG5TOij/F7rYn6r1YStXHUwMDA11t2jyUeNXHQvfX38XHUwMDA3pZeQXHUwMDA2lpQr3T98KDCc8dqZpJOfy0VvcaJJS4ctjXrcM2Lg2TJcdTAwMDVcdTAwMDNCXHUwMDEw4yB4Okg0O0c0XHUwMDEzv1x1MDAxNGdcdTAwMTF6V5qQaCba47pcdTAwMDPm7Ou+3jNljTAnXHUwMDE16yCRdlx1MDAwMsR666MtrrW799GLJym4pJLSw2df7Vx1MDAwNFxcuOGfQ++W14xcdTAwMDKpXHUwMDFlSPB1oPPyXHUwMDAzwuN5S9qZ2JhO4yNiXFy3tVdP5Zb4qSdcbpqu9N7EXGJXVqZPYlx1MDAwNFx1MDAxMUIwQVx1MDAwZltcdTAwMWMmXHUwMDAxUlxmXHUwMDFjrqOPy63RJH9hQ1wiX9g8c1x1MDAwM9nr2ahrZy6CqPI2glx1MDAxN4flXCJX0dtpoduZnlx1MDAxN0to0ZvURcPQnjaIuVx1MDAxZm38QCXSJFiJNENcYlx1MDAxMVx1MDAwNujh2/yEc7a+eHYg2U9DXHUwMDExSL2DrM5KXHUwMDA3YYH69T1heZbJdTp1s/toWfa8JkHzkVx1MDAwZSpHjiVD4FBYbmm9/Vx1MDAxYUvljmHB4Sf0+fnGcsvZrqe2cf57sfRs1u24QFC6a+Tf4nJUuyjmKI3KhFWW16lOp3DWP1x1MDAwNi59i6mZx/LBx3NcdTAwMTmoxlx1MDAxM0omyLex1IXK/ZR0UuLZqlJpqjJcIpJcdTAwMDdcdTAwMGZcdTAwMTk+lFx1MDAxN/nbfP9xdtZN3YxKbFDMZK0joNK3fFxmeuSefDyVW0KGr60lR5JRyWmIbNxvLpfHPphL5nH++7jkyNNaQlx1MDAwMFx1MDAwNVx1MDAxMUzsUHmWNmUrXHUwMDE2e1x1MDAxY04vLlxueZbIk7v5uHlcdTAwMDRgrrmxdPXVT1x1MDAxOSxcdTAwMDdzY3GIXHUwMDBlXHRcdTAwMDRJLsKk+H5Tujz2wZR6PcKNy99cdTAwMDet8E5CdUpJXHUwMDFk/49cdTAwMDVcdTAwMGZcdF1eN2UvmuiB20Ju3ugsQLp+xo5cdTAwMDBav1x1MDAwMKxcdTAwMDDiUOtcdTAwMDNBrCl2tlOVys/5xlRcdTAwMGZM92NMfbjEXHUwMDFjUFx1MDAwMqBcZj71zNttWCjeXHUwMDE3XHUwMDFlMunB1dljdZS541PtsURcXPou21x1MDAxZKhzSbAybkLUI5OheuZ9Y7k8dlxmZdzIr1x1MDAxMFx1MDAxNFx1MDAwMGf7XHUwMDExdyX/m03Aqk3WXHUwMDFl5KxzPreK57GpMIvjh3BcXFx1MDAxZa6O29nYSYv1ymCF3FxiYCgxxVx1MDAwN67jnsaInYx2QLcoYCF/dTWr3TdXNb5ryrZZx/2b3+d+14frWFx1MDAxZq5cXEjPLFx1MDAxYqe/rVx1MDAxM5TcIY2h3yDNsj0yZon2MD+7XHUwMDE2tZJcdTAwMWTV31xcXHUwMDAz4Fx1MDAxM5OiwmNjsE8pXHUwMDEw55JTNVxc08N33Xx3XHUwMDBl21+jPlx1MDAxY0Lm6f9KSFxiQWCHXHUwMDE2YXdnN1x0e7qIzyukdV+Jy3ohm9F+O1wiXGKl37T0YH1sg1x1MDAxNYhjpsY5JsN01zxcdTAwMWWidC5cdTAwMTB/iygpPJvuLTsucIB2aMP+OOJWOpqUXHUwMDE3mKWz1ausUUIj/WeUUPomXHUwMDE5cHGY6GwwopzdXGaxRJ+wvfdcdTAwMDGJwjpcdTAwMTDlUVx1MDAxZv4mUdy7tSxleLk9W2CgrIlNcqfd5rzevDIvh+PIRfaycFx1MDAwNED5mSiOyIGAXG60I7GaXHQqP1xcXHR7+M0oXHUwMDBmSFx1MDAxNNGBKI/y8LeJ8pxFSWWhkMBcIvhaxDTCrGs6jCTL0Xh+VM5eps9s+9iJ4lx1MDAwN1pAfKOU/uc0XG5hxClcZrNcdTAwMTbxXqDgwYCiOlx1MDAwMOVRXHUwMDFi/uY0XG5A7+U9XHUwMDAxmZpcdTAwMDPvUv5cdTAwMTOJ5M7I4jZKY+NcdTAwMDaPs9ygMEj1jlx1MDAwMCm/eKWAXHUwMDFlvY8+x0hBylx0leG2KThcdTAwMWWmmFx1MDAwZUx51Ia/2bpcdTAwMGV6XHUwMDFhKciZdFplXHUwMDA3J0rY07M+XHUwMDEy6YdssVx1MDAxOGtcbp5cdTAwMWRWy1x1MDAxZP2JwsKHqFx1MDAwM5asup+FT80q45LCT5lJvVx1MDAxN6lcdTAwMWQrVitba8k/uXq18v5cInHIvFPLIFYmjFx1MDAxM1x1MDAxMTy+3uxl7LtqojS6bYvcndVa2OnhvfbQYelcdTAwMDfdweLraFx1MDAwYnFbzJiQXHUwMDEyUuze2e9omNshwq5FQFx1MDAxMIaMXGJCXHUwMDA0vNvQcFxmXHRiRFx1MDAwNo9gnKZcdTAwMWVkLZU9L5D248SskIac9LTfXHUwMDFkXHUwMDA3XHUwMDEyXHUwMDAw34hgXHUwMDFjJsguXHUwMDAzUUWI4ICHSv46XCKqtFxiYcCQMVxm6E7M2qRKQilcdTAwMTHAgdrQPFGVXHUwMDE4X1fGj7e3fCTrnWi1XFy2U8nYkVPltJs9jK3akiGyLS7IkURcdTAwMTCgXHUwMDEw9Vx0R0SVXHUwMDE2oXZcdTAwMTgy1lx1MDAwZaHw7Fx1MDAxM1x1MDAwMYXiXG4oJVx1MDAwYk7VoHszr05rrHNfOe1cXJ02XHUwMDEyg25cXP8+Jm9QhVx1MDAwZZSnXHUwMDFjzFx1MDAwM0TQ2dtbkjBcdTAwMWLbXHUwMDFjXHUwMDExVUfuXHUwMDAxXCKfWFx1MDAwNidqUuHOkXmLqrl5XHUwMDFi61xmUqlaO9tcdTAwMTORXHUwMDFi1m3wc+33tVBUId+t2Fx1MDAwZbU3dzBcdTAwMGZcdTAwMTBJSlx1MDAxMFx1MDAwMfxr26rj9lx1MDAwMFx1MDAxMfWkilx1MDAxMil26OVwlbhIxJPNWs5gndS8Uy5bp1xc/zUsf6KUtdaKKFx1MDAwMZfJZF874Fx1MDAwZbVYxYK+LY79U6Y30prXNFx1MDAwZWPo00JcdTAwMTF6x6NfWlx1MDAxZqpcdTAwMGZcdTAwMDCu11x1MDAxNlx1MDAwZlx1MDAwN1x1MDAwYuGj95u6W5PIQMbuuvvZRIfNjf9cdJOTSiadRMAt41wi8Vx1MDAxZVx1MDAxNjlyXHUwMDE45PzD97uQQFx1MDAwMIBRXHUwMDE4zj60XHUwMDFlJVx1MDAwMlezS+eFuHjrXHUwMDEyQtaamiDK37pCXHUwMDAwsl2LnZfS39X1v2x8TtDCnlVZ0Ko04cR8elx1MDAxNkv8Tzr9XCJqpFx1MDAxZpqV87wglSG4xN1h92QliFx1MDAxYahqXHUwMDEz5646wDGBXHUwMDA1Q1x1MDAxMKu5N1x1MDAxM6761pOmMXQsxVx1MDAwZoAkpII55Y7qx59VPC9cdTAwMTVcdTAwMTLrlUpeXCL5V9m4RIqAXHUwMDFmylx1MDAxOEBMXHUwMDE4XHUwMDEzQlwiKlx1MDAwNX8lXHUwMDEzXHUwMDA0r4TYqeTJXZWxfVx1MDAxOPSv8PBcdTAwMWJcdTAwMDadKlx1MDAwNL8lXHUwMDAy6jFBfFx1MDAxOVx1MDAwNSF7a1x1MDAxNCQui/H2KEhrav5X/+uNgpxzyikgr/pRO/J6t/rCalx1MDAwMORcIlhcdTAwMWHubqOgU9jj6qP8aaMgwn4jXHUwMDE0e/tcdTAwMDM8VdR5XHUwMDExwN78XHUwMDAwZ8N7z1x1MDAwZohAfIgxMvCAXHUwMDA0fkhAIVx1MDAwM/j5n1XP5dV4RMJccor+W8iujdNcdTAwMTBQ4GzJTtWYskonWkmAPnBE/OX5hp9cdTAwMTjDYWGslPjlTziZts1Z9PVcdTAwMDDyt8by5Vxcv1x1MDAxNMBcdTAwMTk8TEfw3//45Y//XHUwMDA3q6RXICJ9<!-- payload-end -->
  <defs>
    <style>
      @font-face {
        font-family: "Virgil";
        src: url("https://excalidraw.com/Virgil.woff2");
      }
      @font-face {
        font-family: "Cascadia";
        src: url("https://excalidraw.com/Cascadia.woff2");
      }
    </style>
  </defs>
  <rect x="0" y="0" width="1386.4136252390053" height="925.7684999999999" fill="#ffffff"></rect><g stroke-linecap="round" transform="translate(152.91362523900568 60.274537922242644) rotate(0 611.4483747609944 122.40439770554542)"><path d="M0 0 C422.63 0, 845.26 0, 1222.9 0 M0 0 C406.63 0, 813.26 0, 1222.9 0 M1222.9 0 C1222.9 82.09, 1222.9 164.19, 1222.9 244.81 M1222.9 0 C1222.9 53.8, 1222.9 107.61, 1222.9 244.81 M1222.9 244.81 C810.43 244.81, 397.97 244.81, 0 244.81 M1222.9 244.81 C872.91 244.81, 522.93 244.81, 0 244.81 M0 244.81 C0 167.66, 0 90.52, 0 0 M0 244.81 C0 159.93, 0 75.04, 0 0" stroke="#000000" stroke-width="2" fill="none"></path></g><g transform="translate(162.14115869981038 68.46956660293066) rotate(0 95 18)"><text x="0" y="26" font-family="Virgil, Segoe UI Emoji" font-size="28px" fill="#0b7285" text-anchor="start" style="white-space: pre;" direction="ltr">funcionario_id</text></g><g transform="translate(418.91362523900546 67.08333333333303) rotate(0 31.5 18)"><text x="0" y="26" font-family="Virgil, Segoe UI Emoji" font-size="28px" fill="#0b7285" text-anchor="start" style="white-space: pre;" direction="ltr">nome</text></g><g transform="translate(517.9136252390055 68.08333333333303) rotate(0 67.5 18)"><text x="0" y="26" font-family="Virgil, Segoe UI Emoji" font-size="28px" fill="#0b7285" text-anchor="start" style="white-space: pre;" direction="ltr">sobrenome</text></g><g transform="translate(677.9136252390055 68.08333333333303) rotate(0 33 18)"><text x="0" y="26" font-family="Virgil, Segoe UI Emoji" font-size="28px" fill="#0b7285" text-anchor="start" style="white-space: pre;" direction="ltr">email</text></g><g transform="translate(962.9136252390055 69.08333333333303) rotate(0 56 18)"><text x="0" y="26" font-family="Virgil, Segoe UI Emoji" font-size="28px" fill="#0b7285" text-anchor="start" style="white-space: pre;" direction="ltr">telefone</text></g><g transform="translate(1150.9136252390053 69.08333333333303) rotate(0 109.5 18)"><text x="0" y="26" font-family="Virgil, Segoe UI Emoji" font-size="28px" fill="#0b7285" text-anchor="start" style="white-space: pre;" direction="ltr">data_cadastro</text></g><g stroke-linecap="round"><g transform="translate(408.91362523900546 60.08333333333303) rotate(0 -0.5 122)"><path d="M0 0 C-0.17 40.67, -0.83 203.33, -1 244 M0 0 C-0.17 40.67, -0.83 203.33, -1 244" stroke="#000000" stroke-width="2" fill="none"></path></g></g><g stroke-linecap="round"><g transform="translate(509.91362523900546 59.08333333333303) rotate(0 0 123)"><path d="M0 0 C0 41, 0 205, 0 246 M0 0 C0 41, 0 205, 0 246" stroke="#000000" stroke-width="2" fill="none"></path></g></g><g stroke-linecap="round"><g transform="translate(667.9136252390055 63.08333333333303) rotate(0 0 119.5)"><path d="M0 0 C0 39.83, 0 199.17, 0 239 M0 0 C0 39.83, 0 199.17, 0 239" stroke="#000000" stroke-width="2" fill="none"></path></g></g><g stroke-linecap="round"><g transform="translate(954.9136252390055 63.08333333333303) rotate(0 0 120.5)"><path d="M0 0 C0 40.17, 0 200.83, 0 241 M0 0 C0 40.17, 0 200.83, 0 241" stroke="#000000" stroke-width="2" fill="none"></path></g></g><g stroke-linecap="round"><g transform="translate(1142.9136252390053 62.08333333333303) rotate(0 0 120.5)"><path d="M0 0 C0 40.17, 0 200.83, 0 241 M0 0 C0 40.17, 0 200.83, 0 241" stroke="#000000" stroke-width="2" fill="none"></path></g></g><g stroke-linecap="round"><g transform="translate(154.91362523900546 110.08333333333303) rotate(0 609.5 0)"><path d="M0 0 C203.17 0, 1015.83 0, 1219 0 M0 0 C203.17 0, 1015.83 0, 1219 0" stroke="#000000" stroke-width="2" fill="none"></path></g></g><g stroke-linecap="round"><g transform="translate(152.91362523900546 158.08333333333303) rotate(0 611 0)"><path d="M0 0 C203.67 0, 1018.33 0, 1222 0 M0 0 C203.67 0, 1018.33 0, 1222 0" stroke="#000000" stroke-width="2" fill="none"></path></g></g><g stroke-linecap="round"><g transform="translate(152.41362523900557 204.08333333333303) rotate(0 612 0)"><path d="M0 0 C204 0, 1020 0, 1224 0 M0 0 C204 0, 1020 0, 1224 0" stroke="#000000" stroke-width="2" fill="none"></path></g></g><g stroke-linecap="round"><g transform="translate(153.41362523900557 251.08333333333303) rotate(0 611 0)"><path d="M0 0 C203.67 0, 1018.33 0, 1222 0 M0 0 C203.67 0, 1018.33 0, 1222 0" stroke="#000000" stroke-width="2" fill="none"></path></g></g><g transform="translate(260.91362523900546 120.58333333333303) rotate(0 10.5 13)"><text x="0" y="19" font-family="Virgil, Segoe UI Emoji" font-size="20px" fill="#000000" text-anchor="start" style="white-space: pre;" direction="ltr">12</text></g><g transform="translate(261.91362523900546 170.58333333333303) rotate(0 10 13)"><text x="0" y="19" font-family="Virgil, Segoe UI Emoji" font-size="20px" fill="#000000" text-anchor="start" style="white-space: pre;" direction="ltr">13</text></g><g transform="translate(261.91362523900546 215.58333333333303) rotate(0 9.5 13)"><text x="0" y="19" font-family="Virgil, Segoe UI Emoji" font-size="20px" fill="#000000" text-anchor="start" style="white-space: pre;" direction="ltr">14</text></g><g transform="translate(262.91362523900546 266.58333333333303) rotate(0 9.5 13)"><text x="0" y="19" font-family="Virgil, Segoe UI Emoji" font-size="20px" fill="#000000" text-anchor="start" style="white-space: pre;" direction="ltr">15</text></g><g transform="translate(422.91362523900546 122.58333333333303) rotate(0 33 13)"><text x="0" y="19" font-family="Virgil, Segoe UI Emoji" font-size="20px" fill="#000000" text-anchor="start" style="white-space: pre;" direction="ltr">Joseph</text></g><g transform="translate(424.91362523900546 166.08333333333303) rotate(0 28 13)"><text x="0" y="19" font-family="Virgil, Segoe UI Emoji" font-size="20px" fill="#000000" text-anchor="start" style="white-space: pre;" direction="ltr">André</text></g><g transform="translate(424.91362523900546 216.08333333333303) rotate(0 29.5 13)"><text x="0" y="19" font-family="Virgil, Segoe UI Emoji" font-size="20px" fill="#000000" text-anchor="start" style="white-space: pre;" direction="ltr">Cíntia</text></g><g transform="translate(415.91362523900546 265.08333333333303) rotate(0 44.5 13)"><text x="0" y="19" font-family="Virgil, Segoe UI Emoji" font-size="20px" fill="#000000" text-anchor="start" style="white-space: pre;" direction="ltr">Fernanda</text></g><g transform="translate(543.9136252390055 120.58333333333303) rotate(0 46.5 13)"><text x="0" y="19" font-family="Virgil, Segoe UI Emoji" font-size="20px" fill="#000000" text-anchor="start" style="white-space: pre;" direction="ltr">Rodrigues</text></g><g transform="translate(549.9136252390055 167.58333333333303) rotate(0 39 13)"><text x="0" y="19" font-family="Virgil, Segoe UI Emoji" font-size="20px" fill="#000000" text-anchor="start" style="white-space: pre;" direction="ltr">Freeman</text></g><g transform="translate(558.9136252390055 213.58333333333303) rotate(0 28.5 13)"><text x="0" y="19" font-family="Virgil, Segoe UI Emoji" font-size="20px" fill="#000000" text-anchor="start" style="white-space: pre;" direction="ltr">Duval</text></g><g transform="translate(550.9136252390055 261.58333333333303) rotate(0 35 13)"><text x="0" y="19" font-family="Virgil, Segoe UI Emoji" font-size="20px" fill="#000000" text-anchor="start" style="white-space: pre;" direction="ltr">Mendes</text></g><g transform="translate(755.9136252390055 120.58333333333303) rotate(0 60 13)"><text x="0" y="19" font-family="Virgil, Segoe UI Emoji" font-size="20px" fill="#000000" text-anchor="start" style="white-space: pre;" direction="ltr">jo@gmail.com</text></g><g transform="translate(713.9136252390055 166.58333333333303) rotate(0 99.5 13)"><text x="0" y="19" font-family="Virgil, Segoe UI Emoji" font-size="20px" fill="#000000" text-anchor="start" style="white-space: pre;" direction="ltr">andre1990@gmail.com</text></g><g transform="translate(724.9136252390055 213.58333333333303) rotate(0 86 13)"><text x="0" y="19" font-family="Virgil, Segoe UI Emoji" font-size="20px" fill="#000000" text-anchor="start" style="white-space: pre;" direction="ltr">cindy@outlook.com</text></g><g transform="translate(676.9136252390055 264.58333333333303) rotate(0 137 13)"><text x="0" y="19" font-family="Virgil, Segoe UI Emoji" font-size="20px" fill="#000000" text-anchor="start" style="white-space: pre;" direction="ltr">fernandamendes@yahoo.com11</text></g><g transform="translate(962.9136252390055 122.08333333333303) rotate(0 86 13)"><text x="0" y="19" font-family="Virgil, Segoe UI Emoji" font-size="20px" fill="#000000" text-anchor="start" style="white-space: pre;" direction="ltr">(35)998552-1445</text></g><g transform="translate(962.9136252390055 264.08333333333303) rotate(0 80.5 13)"><text x="0" y="19" font-family="Virgil, Segoe UI Emoji" font-size="20px" fill="#000000" text-anchor="start" style="white-space: pre;" direction="ltr">(33)99200-1556</text></g><g transform="translate(962.9136252390055 213.08333333333303) rotate(0 83.5 13)"><text x="0" y="19" font-family="Virgil, Segoe UI Emoji" font-size="20px" fill="#000000" text-anchor="start" style="white-space: pre;" direction="ltr">(33)99855-4669</text></g><g transform="translate(962.9136252390055 167.08333333333303) rotate(0 81.5 13)"><text x="0" y="19" font-family="Virgil, Segoe UI Emoji" font-size="20px" fill="#000000" text-anchor="start" style="white-space: pre;" direction="ltr">(47)99522-4996</text></g><g transform="translate(1197.9136252390053 120.58333333333303) rotate(0 63 13)"><text x="0" y="19" font-family="Virgil, Segoe UI Emoji" font-size="20px" fill="#000000" text-anchor="start" style="white-space: pre;" direction="ltr">2020-05-05</text></g><g transform="translate(1199.4136252390053 167.08333333333303) rotate(0 64 13)"><text x="0" y="19" font-family="Virgil, Segoe UI Emoji" font-size="20px" fill="#000000" text-anchor="start" style="white-space: pre;" direction="ltr">2020-02-05</text></g><g transform="translate(1202.4136252390053 212.08333333333303) rotate(0 63 13)"><text x="0" y="19" font-family="Virgil, Segoe UI Emoji" font-size="20px" fill="#000000" text-anchor="start" style="white-space: pre;" direction="ltr">2020-05-05</text></g><g transform="translate(1205.4136252390053 263.08333333333303) rotate(0 63 13)"><text x="0" y="19" font-family="Virgil, Segoe UI Emoji" font-size="20px" fill="#000000" text-anchor="start" style="white-space: pre;" direction="ltr">2020-05-05</text></g><g transform="translate(318.41362523900546 598.083333333333) rotate(0 56 13)"><text x="0" y="19" font-family="Virgil, Segoe UI Emoji" font-size="20px" fill="#000000" text-anchor="start" style="white-space: pre;" direction="ltr">Operacional</text></g><g transform="translate(316.91362523900546 644.583333333333) rotate(0 59 13)"><text x="0" y="19" font-family="Virgil, Segoe UI Emoji" font-size="20px" fill="#000000" text-anchor="start" style="white-space: pre;" direction="ltr">Estratégico</text></g><g transform="translate(327.91362523900546 738.583333333333) rotate(0 47 13)"><text x="0" y="19" font-family="Virgil, Segoe UI Emoji" font-size="20px" fill="#000000" text-anchor="start" style="white-space: pre;" direction="ltr">Marketing</text></g><g stroke-linecap="round" transform="translate(149.11200000000008 435.5) rotate(0 153.99999999999994 170)"><path d="M0 0 C99.68 0, 199.37 0, 308 0 M0 0 C101.52 0, 203.03 0, 308 0 M308 0 C308 69.52, 308 139.04, 308 340 M308 0 C308 104.44, 308 208.89, 308 340 M308 340 C185.7 340, 63.4 340, 0 340 M308 340 C197.55 340, 87.1 340, 0 340 M0 340 C0 204.85, 0 69.7, 0 0 M0 340 C0 225.06, 0 110.11, 0 0" stroke="#000000" stroke-width="2" fill="none"></path></g><g transform="translate(333.1120000000002 446.5) rotate(0 37.5 18)"><text x="0" y="26" font-family="Virgil, Segoe UI Emoji" font-size="28px" fill="#0b7285" text-anchor="start" style="white-space: pre;" direction="ltr">setor</text></g><g stroke-linecap="round"><g transform="translate(151.11200000000008 493) rotate(0 151.5 0)"><path d="M0 0 C50.5 0, 252.5 0, 303 0 M0 0 C50.5 0, 252.5 0, 303 0" stroke="#000000" stroke-width="2" fill="none"></path></g></g><g stroke-linecap="round"><g transform="translate(151.11200000000008 541) rotate(0 152 0)"><path d="M0 0 C50.67 0, 253.33 0, 304 0 M0 0 C50.67 0, 253.33 0, 304 0" stroke="#000000" stroke-width="2" fill="none"></path></g></g><g stroke-linecap="round"><g transform="translate(150.61200000000008 587) rotate(0 152.5 0)"><path d="M0 0 C50.83 0, 254.17 0, 305 0 M0 0 C50.83 0, 254.17 0, 305 0" stroke="#000000" stroke-width="2" fill="none"></path></g></g><g stroke-linecap="round"><g transform="translate(149.61200000000008 634) rotate(0 152 0)"><path d="M0 0 C50.67 0, 253.33 0, 304 0 M0 0 C50.67 0, 253.33 0, 304 0" stroke="#000000" stroke-width="2" fill="none"></path></g></g><g transform="translate(304.6120000000002 503.5) rotate(0 67.5 13)"><text x="0" y="19" font-family="Virgil, Segoe UI Emoji" font-size="20px" fill="#000000" text-anchor="start" style="white-space: pre;" direction="ltr">Administração</text></g><g transform="translate(339.6120000000002 552.5) rotate(0 33.5 13)"><text x="0" y="19" font-family="Virgil, Segoe UI Emoji" font-size="20px" fill="#000000" text-anchor="start" style="white-space: pre;" direction="ltr">Vendas</text></g><g stroke-linecap="round"><g transform="translate(151.11200000000053 681) rotate(0 151.49999999999977 0)"><path d="M0 0 C50.5 0, 252.5 0, 303 0 M0 0 C50.5 0, 252.5 0, 303 0" stroke="#000000" stroke-width="2" fill="none"></path></g></g><g stroke-linecap="round"><g transform="translate(150.11200000000008 728.5) rotate(0 152 0)"><path d="M0 0 C50.67 0, 253.33 0, 304 0 M0 0 C50.67 0, 253.33 0, 304 0" stroke="#000000" stroke-width="2" fill="none"></path></g></g><g transform="translate(338.6120000000002 692.5) rotate(0 33.5 13)"><text x="0" y="19" font-family="Virgil, Segoe UI Emoji" font-size="20px" fill="#000000" text-anchor="start" style="white-space: pre;" direction="ltr">Vendas</text></g><g stroke-linecap="round"><g transform="translate(293.1120000000001 437.5) rotate(0 0 168)"><path d="M0 0 C0 56, 0 280, 0 336 M0 0 C0 56, 0 280, 0 336" stroke="#000000" stroke-width="2" fill="none"></path></g></g><g transform="translate(159.11200000000008 446.5) rotate(0 60 18)"><text x="0" y="26" font-family="Virgil, Segoe UI Emoji" font-size="28px" fill="#0b7285" text-anchor="start" style="white-space: pre;" direction="ltr">setor_id</text></g><g transform="translate(214.61200000000008 504.5) rotate(0 3 13)"><text x="0" y="19" font-family="Virgil, Segoe UI Emoji" font-size="20px" fill="#000000" text-anchor="start" style="white-space: pre;" direction="ltr">1</text></g><g transform="translate(210.11200000000008 551.5) rotate(0 7.5 13)"><text x="0" y="19" font-family="Virgil, Segoe UI Emoji" font-size="20px" fill="#000000" text-anchor="start" style="white-space: pre;" direction="ltr">2</text></g><g transform="translate(211.11200000000008 599) rotate(0 7.5 13)"><text x="0" y="19" font-family="Virgil, Segoe UI Emoji" font-size="20px" fill="#000000" text-anchor="start" style="white-space: pre;" direction="ltr">3</text></g><g transform="translate(210.11200000000008 645) rotate(0 7 13)"><text x="0" y="19" font-family="Virgil, Segoe UI Emoji" font-size="20px" fill="#000000" text-anchor="start" style="white-space: pre;" direction="ltr">4</text></g><g transform="translate(210.11200000000008 691) rotate(0 6.5 13)"><text x="0" y="19" font-family="Virgil, Segoe UI Emoji" font-size="20px" fill="#000000" text-anchor="start" style="white-space: pre;" direction="ltr">5</text></g><g transform="translate(209.11200000000008 738) rotate(0 7 13)"><text x="0" y="19" font-family="Virgil, Segoe UI Emoji" font-size="20px" fill="#000000" text-anchor="start" style="white-space: pre;" direction="ltr">6</text></g><g transform="translate(157.11200000000008 10) rotate(0 93 23)"><text x="0" y="33" font-family="Virgil, Segoe UI Emoji" font-size="36px" fill="#e67700" text-anchor="start" style="white-space: pre;" direction="ltr">funcionario</text></g><g transform="translate(153.11200000000008 384.5) rotate(0 48 23)"><text x="0" y="33" font-family="Virgil, Segoe UI Emoji" font-size="36px" fill="#e67700" text-anchor="start" style="white-space: pre;" direction="ltr">setor</text></g><g stroke-linecap="round" transform="translate(958.1120000000002 436.5) rotate(0 204.5 170)"><path d="M0 0 C100.42 0, 200.84 0, 409 0 M0 0 C89.54 0, 179.08 0, 409 0 M409 0 C409 88.64, 409 177.28, 409 340 M409 0 C409 85.81, 409 171.62, 409 340 M409 340 C326.45 340, 243.91 340, 0 340 M409 340 C263.87 340, 118.75 340, 0 340 M0 340 C0 226.43, 0 112.86, 0 0 M0 340 C0 260.07, 0 180.14, 0 0" stroke="#000000" stroke-width="2" fill="none"></path></g><g transform="translate(1139.112 447.5) rotate(0 95 18)"><text x="0" y="26" font-family="Virgil, Segoe UI Emoji" font-size="28px" fill="#0b7285" text-anchor="start" style="white-space: pre;" direction="ltr">funcionario_id</text></g><g stroke-linecap="round"><g transform="translate(960.1120000000002 494) rotate(0 202 0)"><path d="M0 0 C67.33 0, 336.67 0, 404 0 M0 0 C67.33 0, 336.67 0, 404 0" stroke="#000000" stroke-width="2" fill="none"></path></g></g><g stroke-linecap="round"><g transform="translate(960.1120000000002 542) rotate(0 201 0)"><path d="M0 0 C67 0, 335 0, 402 0 M0 0 C67 0, 335 0, 402 0" stroke="#000000" stroke-width="2" fill="none"></path></g></g><g stroke-linecap="round"><g transform="translate(959.6120000000002 588) rotate(0 202.5 0)"><path d="M0 0 C67.5 0, 337.5 0, 405 0 M0 0 C67.5 0, 337.5 0, 405 0" stroke="#000000" stroke-width="2" fill="none"></path></g></g><g stroke-linecap="round"><g transform="translate(958.6120000000002 635) rotate(0 203 0)"><path d="M0 0 C67.67 0, 338.33 0, 406 0 M0 0 C67.67 0, 338.33 0, 406 0" stroke="#000000" stroke-width="2" fill="none"></path></g></g><g stroke-linecap="round"><g transform="translate(960.1120000000006 682) rotate(0 201.99999999999977 0)"><path d="M0 0 C67.33 0, 336.67 0, 404 0 M0 0 C67.33 0, 336.67 0, 404 0" stroke="#000000" stroke-width="2" fill="none"></path></g></g><g stroke-linecap="round"><g transform="translate(959.1120000000002 729.5) rotate(0 203 0)"><path d="M0 0 C67.67 0, 338.33 0, 406 0 M0 0 C67.67 0, 338.33 0, 406 0" stroke="#000000" stroke-width="2" fill="none"></path></g></g><g stroke-linecap="round"><g transform="translate(1102.112 438.5) rotate(0 0 168)"><path d="M0 0 C0 56, 0 280, 0 336 M0 0 C0 56, 0 280, 0 336" stroke="#000000" stroke-width="2" fill="none"></path></g></g><g transform="translate(968.1120000000002 447.5) rotate(0 60 18)"><text x="0" y="26" font-family="Virgil, Segoe UI Emoji" font-size="28px" fill="#0b7285" text-anchor="start" style="white-space: pre;" direction="ltr">setor_id</text></g><g transform="translate(1023.6120000000002 505.5) rotate(0 3 13)"><text x="0" y="19" font-family="Virgil, Segoe UI Emoji" font-size="20px" fill="#000000" text-anchor="start" style="white-space: pre;" direction="ltr">1</text></g><g transform="translate(1019.1120000000002 552.5) rotate(0 7.5 13)"><text x="0" y="19" font-family="Virgil, Segoe UI Emoji" font-size="20px" fill="#000000" text-anchor="start" style="white-space: pre;" direction="ltr">2</text></g><g transform="translate(1020.1120000000002 600) rotate(0 7.5 13)"><text x="0" y="19" font-family="Virgil, Segoe UI Emoji" font-size="20px" fill="#000000" text-anchor="start" style="white-space: pre;" direction="ltr">3</text></g><g transform="translate(1019.1120000000002 646) rotate(0 7 13)"><text x="0" y="19" font-family="Virgil, Segoe UI Emoji" font-size="20px" fill="#000000" text-anchor="start" style="white-space: pre;" direction="ltr">4</text></g><g transform="translate(1019.1120000000002 692) rotate(0 6.5 13)"><text x="0" y="19" font-family="Virgil, Segoe UI Emoji" font-size="20px" fill="#000000" text-anchor="start" style="white-space: pre;" direction="ltr">5</text></g><g transform="translate(1018.1120000000002 739) rotate(0 7 13)"><text x="0" y="19" font-family="Virgil, Segoe UI Emoji" font-size="20px" fill="#000000" text-anchor="start" style="white-space: pre;" direction="ltr">6</text></g><g transform="translate(961.1120000000002 384.5) rotate(0 155.5 23)"><text x="0" y="33" font-family="Virgil, Segoe UI Emoji" font-size="36px" fill="#e67700" text-anchor="start" style="white-space: pre;" direction="ltr">setor_funcionario</text></g><g transform="translate(1221.112 505.5) rotate(0 10.5 13)"><text x="0" y="19" font-family="Virgil, Segoe UI Emoji" font-size="20px" fill="#000000" text-anchor="start" style="white-space: pre;" direction="ltr">12</text></g><g transform="translate(1224.112 645.5) rotate(0 9.5 13)"><text x="0" y="19" font-family="Virgil, Segoe UI Emoji" font-size="20px" fill="#000000" text-anchor="start" style="white-space: pre;" direction="ltr">14</text></g><g transform="translate(1224.112 598.5) rotate(0 10 13)"><text x="0" y="19" font-family="Virgil, Segoe UI Emoji" font-size="20px" fill="#000000" text-anchor="start" style="white-space: pre;" direction="ltr">13</text></g><g transform="translate(1224.112 549.5) rotate(0 10.5 13)"><text x="0" y="19" font-family="Virgil, Segoe UI Emoji" font-size="20px" fill="#000000" text-anchor="start" style="white-space: pre;" direction="ltr">12</text></g><g transform="translate(1225.612 693.5) rotate(0 9.5 13)"><text x="0" y="19" font-family="Virgil, Segoe UI Emoji" font-size="20px" fill="#000000" text-anchor="start" style="white-space: pre;" direction="ltr">14</text></g><g transform="translate(1225.612 740.5) rotate(0 9.5 13)"><text x="0" y="19" font-family="Virgil, Segoe UI Emoji" font-size="20px" fill="#000000" text-anchor="start" style="white-space: pre;" direction="ltr">15</text></g><g stroke-linecap="round"><g transform="translate(154.11200000000008 84.5) rotate(0 329.9440000000001 194.00000000000003)"><path d="M0 0 C-21.17 46.33, -200.67 235.17, -127 278 C-53.33 320.83, 286.83 238.67, 442 257 C597.17 275.33, 743.67 366.17, 804 388 M0 0 C-21.17 46.33, -200.67 235.17, -127 278 C-53.33 320.83, 286.83 238.67, 442 257 C597.17 275.33, 743.67 366.17, 804 388" stroke="#c92a2a" stroke-width="2" fill="none"></path></g><g transform="translate(154.11200000000008 84.5) rotate(0 329.9440000000001 194.00000000000003)"><path d="M774.09 385.63 C780.62 386.14, 787.14 386.66, 804 388 M774.09 385.63 C785.65 386.54, 797.21 387.46, 804 388" stroke="#c92a2a" stroke-width="2" fill="none"></path></g><g transform="translate(154.11200000000008 84.5) rotate(0 329.9440000000001 194.00000000000003)"><path d="M782.62 366.96 C787.28 371.55, 791.94 376.14, 804 388 M782.62 366.96 C790.88 375.09, 799.14 383.22, 804 388" stroke="#c92a2a" stroke-width="2" fill="none"></path></g></g><g stroke-linecap="round"><g transform="translate(954.1120000000002 479.5) rotate(0 -471.5400000000001 211.63424999999995)"><path d="M0 0 C-39 60, -81.33 292.33, -234 360 C-386.67 427.67, -820.5 468.17, -916 406 C-1011.5 343.83, -825.17 56.83, -807 -13 M0 0 C-39 60, -81.33 292.33, -234 360 C-386.67 427.67, -820.5 468.17, -916 406 C-1011.5 343.83, -825.17 56.83, -807 -13" stroke="#5c940d" stroke-width="2" fill="none"></path></g><g transform="translate(954.1120000000002 479.5) rotate(0 -471.5400000000001 211.63424999999995)"><path d="M-809.28 16.91 C-808.73 9.63, -808.17 2.34, -807 -13 M-809.28 16.91 C-808.66 8.78, -808.04 0.64, -807 -13" stroke="#5c940d" stroke-width="2" fill="none"></path></g><g transform="translate(954.1120000000002 479.5) rotate(0 -471.5400000000001 211.63424999999995)"><path d="M-827.98 8.45 C-822.87 3.22, -817.76 -2, -807 -13 M-827.98 8.45 C-822.27 2.62, -816.57 -3.22, -807 -13" stroke="#5c940d" stroke-width="2" fill="none"></path></g></g></svg>