<svg version="1.1" xmlns="http://www.w3.org/2000/svg" viewBox="0 0 1244.3016252390053 713.5" width="1244.3016252390053" height="713.5" filter="invert(93%) hue-rotate(180deg)">
  <!-- svg-source:excalidraw -->
  <!-- payload-type:application/vnd.excalidraw+json --><!-- payload-version:2 --><!-- payload-start -->eyJ2ZXJzaW9uIjoiMSIsImVuY29kaW5nIjoiYnN0cmluZyIsImNvbXByZXNzZWQiOnRydWUsImVuY29kZWQiOiJ4nO2d2XLqSJqA7+spKk7f1EQ07tyXvipswGCwMcZcdTAwMGJ4ooNcdTAwMTAgQFx1MDAwNlx1MDAwNFx1MDAxNmKtqKeZi4m+mKeoXHUwMDE3m1x1MDAxNPYxYlx1MDAxMUfIhpO4TVTUMUhCP9L/6c/8t/zjl19//eZO++a3f/76zZzUjI5Vd4zxt797n49MZ2D1bLVcdM3fXHUwMDBmekOnNt+z5br9wT//8Y/FXHUwMDExJ7Ve9+Uos2N2TdtcdTAwMWSo/f5bvf/11z/m//edxzFrrmE3O+b8gPmmxamgxGz146uePT+vxFx1MDAxMlx1MDAxMY5cdTAwMDB+28FcdTAwMWEk1PlcXLOutjaMzsBcXGzxPvp2YXdvzsvdK6ecvs2knH4s/3xcdTAwMWJbnLZhdTpFd9p5+VFGrTV0fEJcclxcp9c2XHUwMDFmrLrb+n5ccnyfv1x1MDAxZDfoqUuwOMrpXHKbLdtcdTAwMWN4XHUwMDE3XHUwMDAwvH3a61x1MDAxYjXLnXo/XHUwMDEwLD59uVxu/v0m6lx1MDAxZEb8XHUwMDA0+F6LM3vHI1xiT6CEXGJcdTAwMTAqhFx1MDAwNJKtyHXW6/RcdTAwMWNPrr+9XHUwMDFjvZCsatTaTSWeXX/bx3VcZnvQN1x1MDAxY3XDXHUwMDE2+41ffzFEXGKdXGLJOJFcdTAwMTRBKYR426VlWs2W60lDyIlcdTAwMDCCS0ogXHUwMDA0Uv21XHUwMDEwx5zfXHUwMDE2xJFUX1x1MDAwNOHbXHUwMDA2T4Z+pj7XkH+tXtWW4fRfr963gffGJ78netKnXouDh/268aJcdTAwMDWQUYEp4Vx1MDAxOFwiSt+2dyy7rTbaw05n8Vmv1l4ozvzTP/++WWNdc+JuVFbEZJCycrWNSoJ5aGV96t6iRva5WUlcdTAwMTVcdTAwMDSp9MElbvfb0ZRcdTAwMTVcdTAwMWVOWTE7QYhTjFx0XHUwMDAzXHUwMDAyXHUwMDEwuaKs8lx1MDAwNFx1MDAwYoYwnl9ccs5WKfJpa5UjQd+hrVx1MDAxMqyrp+9Z8qqOjFx1MDAwYsGhQFx1MDAxMdRxLkywOi4p1/tcdTAwMTVycd97tlu0Zt6lR2Lp05TRtTrTpds911Qla2No15QyXHUwMDFhjtWr+G941Vx1MDAxOJjq3PMvY0tHxTtW09Ppb1x1MDAxZLOxrOyupZ7yb5vdnlx1MDAwZsmaksJQX+dk6qu/pudYTcs2OrebJYrEXHUwMDFiITxcYjdcYjmDnEJcdTAwMTCetyYuXHUwMDEwR2RuLk7JdS3eiNWGsWdDd+NAJV4hTOxccimGw1x1MDAxMFx1MDAwNSlcdTAwMTFEcizk7kj94Fx0r1x1MDAxNVJ2r2vqXHUwMDAw0lxcjkj4qGtcdTAwMTaEXHUwMDBmgupcdTAwMTktuP+5+CN84vnL7LQ1zVx1MDAxOJPWXHUwMDE56d2Dwl1iVNdcdTAwMWRcdTAwMWYmV0dTcm/4QEzD8ENcYqJMYIw/Nz6DXlVdJk1cdTAwMThaXGJcdTAwMTNcciQugkBcdTAwMTKAeVNcdTAwMTQpQ3NUvsuNTlx1MDAwMVx1MDAxOJRFIzkxrnjeosO+7lx1MDAxY1x0ejiOXHUwMDE4XHUwMDBig5FcdTAwMWH/cSDUxeefmyOza1hcdTAwMWRcdTAwMWRcdTAwMTh6XHUwMDExJNo4XHUwMDBloSB+IOeCXHUwMDAxTHH4SX42U0Xi8uyh3Y4l2uzRqY3SNVt3gCD0zVxm51x1MDAwNCGwN4IgRKFcdTAwMTBcdTAwMTJUXGLM6ScnyFXapHbRwlx1MDAxML3JXHUwMDEyjSPfnHfN/YCUlVx1MDAwMjT8eC55RdOiNWTDx1x1MDAwMY1dlWKwUUqmtcdcYiN6MIz8Rm5cdTAwMWJGXHUwMDFjMqAmoj6V/pRcdTAwMWOps1x1MDAxYpWaUTe836FcdTAwMDNMy1x1MDAwMm0lai7gXHUwMDA2oiBcdTAwMGJcdTAwMWPZQVxuXHRhXHUwMDEysPBDO2hdUvd5aIzzzefHUqaVTLbzSd2RUqq0MrRb9SZ+oIt5nSdEyFx1MDAxYVBcdTAwMTJcIjVJouJ4nHZcdTAwMDPXcNxTy65bdnP1XHUwMDEw065cdTAwMDds6SjNPet1u5arxLjuWba7usf8e+OO01x1MDAxYrdMY1xyXGL1zYHb+t7XLaIy3mvx169cdTAwMGJcdTAwMWSYv3n7+19/37h3XGb6d1e3bHHAL/5/d8aP49VP3zxcdTAwMTRSXHUwMDAwQYhcYj8uXHUwMDFj49sxT9xccmL9XHUwMDExb6XOU88xyfV3UIiF+r/Qt8WevZO+XHJcdTAwMGVzRDZMrChcdTAwMTKcXHUwMDAzXHUwMDFjYVj4Rd/rtlx1MDAwZqVvaW91xz5cbj5cdTAwMTboXHUwMDFlZJIyzJFcZlx1MDAwZl85JTKYtmvJbto2XHUwMDBiiVLj9rZJdYdPkFWvXHUwMDA2WTn3fuHDPifKa/RcdTAwMTQgXHUwMDAykfA/XHUwMDE3XHUwMDBmXGLf4lnwXHUwMDA138a91Vx1MDAxZPsg+Fx1MDAxMFxuhFx1MDAwZlx1MDAwMopcdFx1MDAwNYgvnoU/ou96OLYnotXsJTLNp3rl5tS85Ge601x1MDAwNyFajVx1MDAxZVx1MDAxZlx1MDAxNj/iXHUwMDFi6L7aPnXdJWdEfuGnJX5cdTAwMDR+XHUwMDEwflx1MDAxOFx1MDAwNlx1MDAwZTxcdTAwMDVGXHUwMDEy7eSQbF5jXuQ3mXzrtFYqVMD1aaky1p4+XGZXXHUwMDFjkr5L8pPoU2NONe6gUVx1MDAxYylf9L1uO1x1MDAwNvoo2JLXoe5cYiH+XHUwMDAx0I/wY8x0jYsz2DKGRrqavneGmV5ed/zwqu1je/S6bHRk+uaZ3yd+SEiEqPzCT1x1MDAxM/z8N27lgPdZP1x1MDAxZZjGiKVcdTAwMTTYi62Gxi+XzV6pkWfJgt1cXOnayqRxxpL647ds/DDYXHUwMDEyz/6AvNpcdTAwMTD4ISDVXHUwMDEzllxi9lO8nl/4re/tv3ErXHUwMDA3vFx1MDAwYj+Cg1x1MDAwN59cdTAwMTRcdTAwMTAs0Fx1MDAwZWlZpvPcNZpV5zFViPdOq7V6/fahoD9+7IT6Ut5cdTAwMTc/d1x1MDAwZaNvXHUwMDAwuFx1MDAwN1x1MDAxOFx1MDAxN5PMLbZcdTAwMTAg9UiQ/sfCR8H4wzT2L1x1MDAxNNf39t+2lVx1MDAwM96HXCJcdIyoI6BGQoCj8Fx1MDAwM9H6c1xmxs1moV+AXHUwMDE3vZuEuradc+3ngV71STCKXHUwMDA0bMngP4xdpIhcdMkh+niXzFx1MDAxN4nz12GNYlBuXHUwMDBiXHUwMDBiLFx1MDAwM+OEUmUySXibWD69iFx1MDAxN85L03LqslxcKaJcdJjcXHUwMDE2J7qDSPBKZlx1MDAwYocn+7ODaFMofkNqi3r+XHUwMDEx+XNS/SPR589sXHUwMDAxS59uyWyBaGM6i2/WfIh0XHUwMDE2JUUkclAgOVRCpp7gKPxkbpS9iDu0cMa77Spqi9tGzikn9CeHLZGD0V7J2eTMXFwjXHUwMDA3qXNcdTAwMTBBXHUwMDE5/Clp/lx1MDAwN0RcdTAwMDdrgVx1MDAwZf5odKBAXFxcdTAwMTBGYPjhX+3+md9V6mw8Kdx2ySgtWs2cODp2XHUwMDE42yM7m/yQXHUwMDFirI70XG6LXHUwMDA1i5KBclTsXHUwMDEwLdghXHUwMDFmzVx1MDAwZWFcdTAwMTBcdTAwMTBcdTAwMDBl+Ph1+rJg2kYtk1x1MDAxNEV3XFyUvYu2zD7qj86yXHUwMDBmkUD+89FR+kvmJfyfXHUwMDFjXHUwMDFkqlx1MDAwNTo0XHUwMDFhOoxcdTAwMDaiI1x1MDAwNVx1MDAwMoLt4P+rn9VuXHUwMDFjXFy+yppOetwo3XVcdTAwMWLM1D71g8qV2DPHe0RnU0HZXHUwMDA2dFxiZ0qRRZTcj2NC56I3MPstXHUwMDFk8HmVJFx1MDAxMkIy0IVcdTAwMGUpYIRiKcLPelKVU3xxPbhKnPPyVfqWk/7s/El/hpYjyP58jo8miIYjiEkglT5HcdW9t/fL4fiJ23Xnr3/rwM+rJJH48evXmuNbMlx1MDAwNiAl4Vx1MDAwYl9cdTAwMDaZSrYsy+6kddqcjMfNZLU4PILWXHUwMDFhK1x1MDAwMLE9XHUwMDAyXHUwMDE0bvTGXHUwMDAwg1x1MDAxMskoXHUwMDE5XHUwMDE4x1x1MDAwM9DZX/9nu5ahXHUwMDAzQd9FiYZcdTAwMTBcbkSISkgk2qV4xaxPZVx1MDAwYuSfZlx1MDAwM9jNZ9PTczBpdPQnXGIsXHUwMDExROD+upOJUFx1MDAwNFHOPKVmXHUwMDFmP/3RXGKglOnYhl3XgqA3WVwiISSCqy8hXHUwMDE2lDC+Q1x1MDAxYW6xXkKTcoGRfGVaNSrTjFm9v9dcdTAwMWQh7uvntP+oj9zQ4WmDXHUwMDE5goxcdOpcdTAwMTWUf+6Z0E2vrrR5aFx1MDAwZXRcdTAwMDBpIUwkkiRcZlwiad7mSYJcdTAwMWSCQI+8Wnm8vMT1XHUwMDFjrNyc2eLGiudcXO1BQsuFlFx1MDAxOIo9gsQ39cZcXFx1MDAwM1x0U06k9Peo+5RcdTAwMWOlXHUwMDFj0+xcdTAwMWG2XHUwMDBlXHUwMDE0fVx1MDAxNyVcdTAwMWFDwV1qkPBcdTAwMWGzclx1MDAxMN4vd9mu11x1MDAxZdxMXHLOXFzYrOTHrVx1MDAwYodp31x1MDAwYsBvbl+mRGSPXHUwMDEw+Vx1MDAxYc9sjaRSwVx0XHUwMDEwnz2Smlx1MDAxOI6MzY2eXHUwMDBlzNCLINFcYlxuzCuH3KvrwJjt0OcpKVx1MDAxYa1zllx1MDAxOV1MwGB6Wr1cdTAwMWacXHUwMDAx7Z1cbnylP1xygWifZihULlx1MDAwMqRqQFx1MDAwNzGQXHUwMDExMsuPiaBL067rMZh7lSRcdTAwMTJDXHUwMDEwXHUwMDA0myEpXHUwMDE5ompaXHUwMDE03jNnx5LP2Vx0I7PSLJfA3J11SFL76lxmiZf9XG77nVx1MDAxNMFwXHUwMDE5PURcYjWW45+coafe702v0d9bg//XS/qzSFqSJ1x1MDAxYU/Bpb6QXHUwMDAyIbnCKfywLnZcdTAwMTFz7ltlY/SUscxa+p6OSf1Sd578rfxfQ0V7zVRcYufs5px6jVx1MDAwZfAnJ8qw647ppTTpXHUwMDA11iaxovGFgvnCjEk15JPhfVx1MDAwZsnkOaO3TYky6UFPNCa5nnV/qj1fa5GkfU6bIN9QNrHBXiFcdTAwMDZcdTAwMDVnnz2doWbZ9envvaHb6fXausC1LlQktGRweqqkkGPCd0hymE6M8WPqXCJVuc3flXkqna0/jUrak0VX6pEg3WdqN99QXHUwMDFiuMlyXHUwMDExjiRcdTAwMTP4pzT8PFx1MDAxY1qN19hOdz6b+X1qtHo9T5kh1IGxLdJFgi24xztcdTAwMDJcdTAwMDIhRilcZlx1MDAwZlu2aFrFYS3WzbO4U2lMk+VcdTAwMWKivVx1MDAwYn29RzXfX0uYkFZMmTDKXGJgn9yF/lx1MDAxYqb/JaWgXHUwMDE0xSAhWiS3ropcdTAwMTRxcFx1MDAxOJjqylx1MDAxOEOMsPBMPbunj/ePl+lK3bDEk2TJKlx1MDAxZlxcXHUwMDFkXHUwMDFkU8qC7Y8pXHUwMDE2rqrvxYdcdTAwMDTop86S+FxyY6W/XGKAXHUwMDE4pJTpQdSSRNGAgsEpXHUwMDEzmGDION0hSNWJP507aWLnTlx1MDAxM316m73vZNhD6uiQwmx/fVx1MDAwMyFcdTAwMGJcdTAwMTWk4lRcdTAwMTBcdTAwMDBcYvpcdTAwMGYgSlmEXHUwMDE4UfN6fYh6kyiiiVxu7sSJqWRI3djwQauuXYPjMrdJrtfq9sbm/eNgpn3p+TpR21aZezdRoZKQqMTYW2HyU+eS/0a40l+KUIxIqYeNWpYoXHUwMDEyUVuiwFDhpCZTXCJ8aWDOLjw8m+dcYlx1MDAxNo0+rrlufYKyRe2Bwr7ZzSFcIlih6jNcdTAwMTiDkjNGPrlHXHUwMDEwXHUwMDAxXHUwMDA0YoCq/3RcdTAwMDDKJ00084SDi1x1MDAwNTFhlMlcdTAwMWTqbGuNZNlJ9nh6JEaT6eBcdJ8nqtq3ylQw+atcdTAwMDP3bp9QuNw+SFx0YVHWXHUwMDE1Plx1MDAxZfP0ortIK5JQdJJgYNdZMq+bZjuYpUt5XmmcXd9OnjM1XHUwMDE3laCdaidcdTAwMWFHQFx1MDAxMlslie3RxVx1MDAxN84sXHUwMDExjDlkn3zu9NmMUvBcdTAwMTBcdTAwMGZJXHUwMDAyvP7N4b1cdTAwMTDFS3o2Llxcnedp+76UPbVu4vJK+8YpiiV5sprrt0c/RDiWOKFcdTAwMTJcbi4/3l3+xdJ3JflglpBcZlx1MDAwZTxJXGbUzGGHZsyIPiSyjbNJrXxdgIlza4gsW3v3g3r6r5DE+P5KcTcujrpOklx1MDAwMJRcdTAwMDIgyGFLcVx1MDAwNVwixJdiuG+S8n3TUfepZ+uRee5cdTAwMTcnXHUwMDFhS8Er3kMslFViaIfc2U7mKZuaJpunXHUwMDA1u2Y8uJlmotmA+sO0jFx1MDAxMkf7bK3iXHUwMDBmR2zNQEdeb3N+8EXvXHUwMDBmzFNSyW+4f/27adU2r5B6YKCW5IlGVLD7QapRoFx1MDAxN5lcdTAwMGY/abrNpvuo0blcdTAwMTNn0GxO8Vx1MDAxNKdYS/uBXHUwMDFl96mzd4TYa/KsXGaXgVx1MDAwNInSbVx1MDAxMGmZuGPi6dJw2qbrtUvWXHUwMDAwpoUwXHUwMDFiSXpdXHUwMDAyeFiMg1x1MDAxOVx1MDAxOKPKNIVcdTAwMWKTgtEyxtXF6b7j5pg190XdlnTN64tcdTAwMGalwJxwXHUwMDA2pCTLmkchOSGQfX/xNeWhXHUwMDE4n0j/a12XMNmm71x1MDAxZqXNP5vkqDC8NaBcdTAwMDRe8Mnv3fMtXoSDI/CAq1uHXHUwMDAwXHUwMDBiM/fdM3iRnvZ8y3LYQFAo0C4rzHdgqvqUuTaueeNu1GazXHUwMDFilGmU9VGSoFx1MDAxMli4hOByYJRcIrpcdTAwMTnBNXLeufa8z6puWXpcdTAwMWVBZVx1MDAwMoCA5LBu6I+xXHUwMDAyoVx1MDAxN55cdTAwMWaYrrpimyzAgVx1MDAxN5x/XHUwMDExZCtZQVx1MDAwYk3w4MV2IVx1MDAwMZBcdTAwMTGoJpyhyarSnFx1MDAxMZ9cZnk6J5P3zl38XHUwMDE5TptHsNKE2GbcODyRoch6b9W5r7gweNVcdIzFvI3qxy/GtFx1MDAxZrA++apcdTAwMTO+m7ay/y/+f3elktE1XHUwMDBi/9Y2XHUwMDA1ckrRXHUwMDBl6al3RmnSvk7bgJt3ZCBP7ct7U/tK2+1MMih1YlKNx1x1MDAwNFFzzsOuyfTF5KGZXGb0OEBcdTAwMGVcdTAwMTCjXGLv0Fx1MDAxNCzHi7PcLDdOZFx1MDAwN4lWoTusSaukfb2utyZcdTAwMTNcdTAwMGKmktFDUbkhnXyNSoVcdMBqXGYjXHUwMDBlu0DTXHUwMDE3loFYwoD934clXHUwMDBmzJ5AWN1cdTAwMTK5S8PlxHN/0Fx1MDAxZHZ4vmtlb89p4mqUSGhfyuE5Z4Kp5Fx1MDAxMFx1MDAxZIrKMKumKSAp5FxcRvG4f1E53/bBVO5lKVHJXHUwMDAyqYSQIy/qXHUwMDEy3lbGkjfl3H0jXHRcbqAzvo41XHUwMDFlYo9ndd2pZIJv89dAdlx1MDAxOCo3jF/xur9cdTAwMDZCSlx1MDAwMVxcWl75i0pd1rdX92tHKoODZoGdoaHkcN4nP7xcdTAwMWLVcZv8PD3GNFx1MDAxYs/l0lbyUlxcJe90x1KN1JeM5Vxullx1MDAwMoV0o743Po03+FE3r1xcXHUwMDAwqb932/G4UUNcdTAwMDfT4vWuZVteRPiv//3rf7SIT6+KXHUwMDE0jbYtXHLTOKFQSv+N/Vx1MDAxMW39vmyMirdcdTAwMGZcdTAwMGY36clIVm6qXHUwMDEypbUvieSYb6GNYXhcdTAwMTjawtVKUoCERPjAq4RcdTAwMWNcdTAwMTi2e2XDXGYtelx1MDAxMb5KXHUwMDEyaXgptuRTXHUwMDAxwrHYKc/XgdmLRPwuk3l6bJfbN+dx3n/SvkH7iod0pVx1MDAxZlxyp4fykCox/JH9XHJmbW1cdTAwMGWIXHUwMDAwRZgyXG4jmLWv0eZ828fOXHUwMDAxg+7hytHvXHUwMDFhe0LCXHUwMDAzzSGCXHUwMDAwXHUwMDEzScVcdTAwMGV1LrbTKj5cdTAwMTedvDW7v7qIJ3g6Vk7iaMzCVX3b38qMXHUwMDAybIs0XHUwMDFlKoZcdTAwMGblplnh+uBcdTAwMTNQ7M1cYsixTFxuI1x1MDAwNfFcdTAwMWJDe57Z61i9iv9u/7xo/opE0caewUs5KtpcdTAwMDFcdTAwMDJAhs83XHUwMDE2uWLSXHUwMDFhXHUwMDFiJHX2lIo5ycfsfS010t0+Ulxut3hFlaZcdTAwMWRm6Fx1MDAxOXI9eyE4RvTQnW9cdTAwMGU89jzy5eyDW0bNPZqMYFx1MDAxNt5+3Z2hK1x1MDAxMzzeVlxm2eJWjEyfevdcdTAwMTHt1yGZwtvif4eazoVjSjI1+0T7WHH4XHUwMDBiqVx1MDAwZkMqsJEoXHUwMDAymEFcdTAwMDEpXHUwMDBlb6Zgrl+gQyPVS8VcdTAwMWVy7mhmx2Zp7ddloJRsS3Th7EBIhWo1r1x1MDAwNulQYrSH1r06IYW1QFxuR/OMSFx1MDAxYdj1XHUwMDFhY+kpXHUwMDFhXHJcdTAwMWZcdTAwMGW/LDmPlcKZUabygT3Uk8WJ+aC9kfKSVIKJXHUwMDEygFx1MDAxZoaocEkqXHUwMDEyeE5H+Fx1MDAxNVxy18RcdTAwMTPyvlx1MDAxY5UgO4dRcI6KoEIyuIO3cphgXHUwMDFk69EsXFw892xOcdY1XHUwMDFlSzPdoeSYbVx0XHUwMDA0cK5VIMDzTzJI/N3APqGdO65IQHBldWBlXHUwMDEwZ1xieYG28Ikm1pmojMh0dl9+fp6NcPPRda61T8rcPoL0yqxcdTAwMGZcdTAwMTPRXHUwMDBlt7hcblx1MDAxNlx1MDAxOCuwaFx1MDAwNJ/i8aBcdTAwMDWJXHUwMDBlWCkpoiHFg5voKEuFXHUwMDEx5eEnZYZItelslMrk2F2lmcqd2Y+TXHUwMDA3/ZHamlHJgU5IeU0xMeH0U1x1MDAxYqvjJlxug0CiJJBcYmJcdTAwMTSqMvc1Wl3q5M/ik8fz9Oz5ovh8XHUwMDA3S72h9lx1MDAwYriqXHUwMDA3/lx1MDAxNqJcdTAwMDQ8kJsjpJHikHDx6Y2UXHUwMDE2XargXHUwMDBmulNcdTAwMDX5OSBAgVx1MDAwMz+q9Fx1MDAxMahcdTAwMDfiXHUwMDBlXHJAXHUwMDEytUyvOGs0z+/kcJLJyWvrTvs1iFxi31x1MDAxYU0+XHUwMDE0U+EyjFx1MDAwNVx1MDAxNJRRXHUwMDAwvlI+tHB07CnBWD03g/P+JZNcZlx1MDAwMyzCmzpcdKqXcniTaldPK1br5r49zoxcIjZqOFxckoe6mlokeWxy6W9I8lx1MDAxMFTtyVx1MDAxOTyW4tXonVx1MDAxYTRJ73iTJeJQMrAynFxiQjnGJLx/3y0kpolmSZZPW+PBLD5Mt1xyon3bbSy1SOxcYtX2XHUwMDE0qrmykFwiUlxu1Vx1MDAxMY0ktVx1MDAxOEhG5Cm4a1x1MDAxMiFcdTAwMDJiXHRQeHtlnybs0cO081xctK9zV7dNXHUwMDE3N660L1TDYlu8TFnsXHUwMDAzTc1CXHUwMDE1xFxiJYvknzxPSoucjoCUjtf1XHUwMDFhRvFm3jiT10+jTL9YunZzOZpdnGYzdC/KtrWvXHUwMDA355uz1kMqyVfjuKDGcVxcXHJcdTAwMGXUZV9vjz6/qIFVgVx1MDAxNHrRSVx1MDAxY6qC/lBcclx1MDAxYr9T4k9E2JWySPBsZnFcdTAwMDekXHUwMDAyUjpekKrMeinMjItSfjaWN/fXd+K6O1xmh9S257dcdTAwMTf/2Y7U9saeX0hcdTAwMDUhJbiXsFx1MDAwYvDahHd+UVx1MDAwM0dcdTAwMTVcZlx1MDAxMlxivVXhNESKXHUwMDFjXHUwMDFkUlx1MDAwMVx1MDAwZflcdTAwMTekrlx1MDAxM3WWTD80sr389LJZKl+ORvX4XHUwMDA3IMVcdTAwMDJqq1x1MDAxNsW9X0hFQlxuQERcdTAwMDDzs+FHKnDiy4iEXHUwMDAwh1qN4NBE0aMjKsBcdTAwMWb/miBRzVx1MDAxYnh6/ihItXHWvXfPXHUwMDFit+5pOKK2OcVEUDeMLyP13obB3lwiKIKvty6bW7AtTXVcdTAwMTlcdTAwMTeMh6pnODRS7OiQXG5YrvJcdTAwMDWpeP+51q44sVaJVGN5kswz4cxCIbXSXHUwMDEweFx1MDAxOSnIgFx1MDAxZikmN0AlNviwyC5UmWrC9p9IXHUwMDE1oFjAJU+rr1x1MDAxZlkwVEJcYqTultyDoWJS+la8iECVr+hwI1++yMFcdTAwMWX58uVBRyuYjLrUcuBcZlx1MDAxOHmLZ1x1MDAxM4hQ+JSnXHUwMDA3guOsXHUwMDA3m/aTSU5Lt1f4dFwiz/VR/qCo1bZgMmFLXnX/0+Sjnlx0b1x1MDAwYk1sfyi9OTSwpNxr7/duqHdyXHUwMDA0MsF8uTzRXHUwMDFjgeFQ+vY9VPQjUFx1MDAwZd1g/JfXoPI3o98vuur6qFx1MDAxZF5I+zayzPHp+v3+W2P+8o6fk+khYHqX+o8/f/nz/1x1MDAwMfdcdTAwMDH08CJ9<!-- payload-end -->
  <defs>
    <style>
      @font-face {
        font-family: "Virgil";
        src: url("https://excalidraw.com/Virgil.woff2");
      }
      @font-face {
        font-family: "Cascadia";
        src: url("https://excalidraw.com/Cascadia.woff2");
      }
    </style>
  </defs>
  <rect x="0" y="0" width="1244.3016252390053" height="713.5" fill="#ffffff"></rect><g stroke-linecap="round" transform="translate(10.801625239005602 60.274537922242644) rotate(0 611.4483747609944 122.40439770554542)"><path d="M0 0 C422.63 0, 845.26 0, 1222.9 0 M0 0 C406.63 0, 813.26 0, 1222.9 0 M1222.9 0 C1222.9 82.09, 1222.9 164.19, 1222.9 244.81 M1222.9 0 C1222.9 53.8, 1222.9 107.61, 1222.9 244.81 M1222.9 244.81 C810.43 244.81, 397.97 244.81, 0 244.81 M1222.9 244.81 C872.91 244.81, 522.93 244.81, 0 244.81 M0 244.81 C0 167.66, 0 90.52, 0 0 M0 244.81 C0 159.93, 0 75.04, 0 0" stroke="#000000" stroke-width="2" fill="none"></path></g><g transform="translate(20.029158699810296 68.46956660293066) rotate(0 95 18)"><text x="0" y="26" font-family="Virgil, Segoe UI Emoji" font-size="28px" fill="#0b7285" text-anchor="start" style="white-space: pre;" direction="ltr">funcionario_id</text></g><g transform="translate(276.8016252390054 67.08333333333303) rotate(0 31.5 18)"><text x="0" y="26" font-family="Virgil, Segoe UI Emoji" font-size="28px" fill="#0b7285" text-anchor="start" style="white-space: pre;" direction="ltr">nome</text></g><g transform="translate(375.8016252390054 68.08333333333303) rotate(0 67.5 18)"><text x="0" y="26" font-family="Virgil, Segoe UI Emoji" font-size="28px" fill="#0b7285" text-anchor="start" style="white-space: pre;" direction="ltr">sobrenome</text></g><g transform="translate(535.8016252390054 68.08333333333303) rotate(0 33 18)"><text x="0" y="26" font-family="Virgil, Segoe UI Emoji" font-size="28px" fill="#0b7285" text-anchor="start" style="white-space: pre;" direction="ltr">email</text></g><g transform="translate(820.8016252390054 69.08333333333303) rotate(0 56 18)"><text x="0" y="26" font-family="Virgil, Segoe UI Emoji" font-size="28px" fill="#0b7285" text-anchor="start" style="white-space: pre;" direction="ltr">telefone</text></g><g transform="translate(1008.8016252390054 69.08333333333303) rotate(0 109.5 18)"><text x="0" y="26" font-family="Virgil, Segoe UI Emoji" font-size="28px" fill="#0b7285" text-anchor="start" style="white-space: pre;" direction="ltr">data_cadastro</text></g><g stroke-linecap="round"><g transform="translate(266.8016252390054 60.08333333333303) rotate(0 -0.5 122)"><path d="M0 0 C-0.17 40.67, -0.83 203.33, -1 244 M0 0 C-0.17 40.67, -0.83 203.33, -1 244" stroke="#000000" stroke-width="2" fill="none"></path></g></g><g stroke-linecap="round"><g transform="translate(367.8016252390054 59.08333333333303) rotate(0 0 123)"><path d="M0 0 C0 41, 0 205, 0 246 M0 0 C0 41, 0 205, 0 246" stroke="#000000" stroke-width="2" fill="none"></path></g></g><g stroke-linecap="round"><g transform="translate(525.8016252390054 63.08333333333303) rotate(0 0 119.5)"><path d="M0 0 C0 39.83, 0 199.17, 0 239 M0 0 C0 39.83, 0 199.17, 0 239" stroke="#000000" stroke-width="2" fill="none"></path></g></g><g stroke-linecap="round"><g transform="translate(812.8016252390054 63.08333333333303) rotate(0 0 120.5)"><path d="M0 0 C0 40.17, 0 200.83, 0 241 M0 0 C0 40.17, 0 200.83, 0 241" stroke="#000000" stroke-width="2" fill="none"></path></g></g><g stroke-linecap="round"><g transform="translate(1000.8016252390054 62.08333333333303) rotate(0 0 120.5)"><path d="M0 0 C0 40.17, 0 200.83, 0 241 M0 0 C0 40.17, 0 200.83, 0 241" stroke="#000000" stroke-width="2" fill="none"></path></g></g><g stroke-linecap="round"><g transform="translate(12.801625239005375 110.08333333333303) rotate(0 609.5 0)"><path d="M0 0 C203.17 0, 1015.83 0, 1219 0 M0 0 C203.17 0, 1015.83 0, 1219 0" stroke="#000000" stroke-width="2" fill="none"></path></g></g><g stroke-linecap="round"><g transform="translate(10.801625239005375 158.08333333333303) rotate(0 611 0)"><path d="M0 0 C203.67 0, 1018.33 0, 1222 0 M0 0 C203.67 0, 1018.33 0, 1222 0" stroke="#000000" stroke-width="2" fill="none"></path></g></g><g stroke-linecap="round"><g transform="translate(10.301625239005489 204.08333333333303) rotate(0 612 0)"><path d="M0 0 C204 0, 1020 0, 1224 0 M0 0 C204 0, 1020 0, 1224 0" stroke="#000000" stroke-width="2" fill="none"></path></g></g><g stroke-linecap="round"><g transform="translate(11.301625239005489 251.08333333333303) rotate(0 611 0)"><path d="M0 0 C203.67 0, 1018.33 0, 1222 0 M0 0 C203.67 0, 1018.33 0, 1222 0" stroke="#000000" stroke-width="2" fill="none"></path></g></g><g transform="translate(118.80162523900538 120.58333333333303) rotate(0 10.5 13)"><text x="0" y="19" font-family="Virgil, Segoe UI Emoji" font-size="20px" fill="#000000" text-anchor="start" style="white-space: pre;" direction="ltr">12</text></g><g transform="translate(119.80162523900538 170.58333333333303) rotate(0 10 13)"><text x="0" y="19" font-family="Virgil, Segoe UI Emoji" font-size="20px" fill="#000000" text-anchor="start" style="white-space: pre;" direction="ltr">13</text></g><g transform="translate(119.80162523900538 215.58333333333303) rotate(0 9.5 13)"><text x="0" y="19" font-family="Virgil, Segoe UI Emoji" font-size="20px" fill="#000000" text-anchor="start" style="white-space: pre;" direction="ltr">14</text></g><g transform="translate(120.80162523900538 266.58333333333303) rotate(0 9.5 13)"><text x="0" y="19" font-family="Virgil, Segoe UI Emoji" font-size="20px" fill="#000000" text-anchor="start" style="white-space: pre;" direction="ltr">15</text></g><g transform="translate(280.8016252390054 122.58333333333303) rotate(0 33 13)"><text x="0" y="19" font-family="Virgil, Segoe UI Emoji" font-size="20px" fill="#000000" text-anchor="start" style="white-space: pre;" direction="ltr">Joseph</text></g><g transform="translate(282.8016252390054 166.08333333333303) rotate(0 28 13)"><text x="0" y="19" font-family="Virgil, Segoe UI Emoji" font-size="20px" fill="#000000" text-anchor="start" style="white-space: pre;" direction="ltr">André</text></g><g transform="translate(282.8016252390054 216.08333333333303) rotate(0 29.5 13)"><text x="0" y="19" font-family="Virgil, Segoe UI Emoji" font-size="20px" fill="#000000" text-anchor="start" style="white-space: pre;" direction="ltr">Cíntia</text></g><g transform="translate(273.8016252390054 265.08333333333303) rotate(0 44.5 13)"><text x="0" y="19" font-family="Virgil, Segoe UI Emoji" font-size="20px" fill="#000000" text-anchor="start" style="white-space: pre;" direction="ltr">Fernanda</text></g><g transform="translate(401.8016252390054 120.58333333333303) rotate(0 46.5 13)"><text x="0" y="19" font-family="Virgil, Segoe UI Emoji" font-size="20px" fill="#000000" text-anchor="start" style="white-space: pre;" direction="ltr">Rodrigues</text></g><g transform="translate(407.8016252390054 167.58333333333303) rotate(0 39 13)"><text x="0" y="19" font-family="Virgil, Segoe UI Emoji" font-size="20px" fill="#000000" text-anchor="start" style="white-space: pre;" direction="ltr">Freeman</text></g><g transform="translate(416.8016252390054 213.58333333333303) rotate(0 28.5 13)"><text x="0" y="19" font-family="Virgil, Segoe UI Emoji" font-size="20px" fill="#000000" text-anchor="start" style="white-space: pre;" direction="ltr">Duval</text></g><g transform="translate(408.8016252390054 261.58333333333303) rotate(0 35 13)"><text x="0" y="19" font-family="Virgil, Segoe UI Emoji" font-size="20px" fill="#000000" text-anchor="start" style="white-space: pre;" direction="ltr">Mendes</text></g><g transform="translate(613.8016252390054 120.58333333333303) rotate(0 60 13)"><text x="0" y="19" font-family="Virgil, Segoe UI Emoji" font-size="20px" fill="#000000" text-anchor="start" style="white-space: pre;" direction="ltr">jo@gmail.com</text></g><g transform="translate(571.8016252390054 166.58333333333303) rotate(0 99.5 13)"><text x="0" y="19" font-family="Virgil, Segoe UI Emoji" font-size="20px" fill="#000000" text-anchor="start" style="white-space: pre;" direction="ltr">andre1990@gmail.com</text></g><g transform="translate(582.8016252390054 213.58333333333303) rotate(0 86 13)"><text x="0" y="19" font-family="Virgil, Segoe UI Emoji" font-size="20px" fill="#000000" text-anchor="start" style="white-space: pre;" direction="ltr">cindy@outlook.com</text></g><g transform="translate(534.8016252390054 264.58333333333303) rotate(0 137 13)"><text x="0" y="19" font-family="Virgil, Segoe UI Emoji" font-size="20px" fill="#000000" text-anchor="start" style="white-space: pre;" direction="ltr">fernandamendes@yahoo.com11</text></g><g transform="translate(820.8016252390054 122.08333333333303) rotate(0 86 13)"><text x="0" y="19" font-family="Virgil, Segoe UI Emoji" font-size="20px" fill="#000000" text-anchor="start" style="white-space: pre;" direction="ltr">(35)998552-1445</text></g><g transform="translate(820.8016252390054 264.08333333333303) rotate(0 80.5 13)"><text x="0" y="19" font-family="Virgil, Segoe UI Emoji" font-size="20px" fill="#000000" text-anchor="start" style="white-space: pre;" direction="ltr">(33)99200-1556</text></g><g transform="translate(820.8016252390054 213.08333333333303) rotate(0 83.5 13)"><text x="0" y="19" font-family="Virgil, Segoe UI Emoji" font-size="20px" fill="#000000" text-anchor="start" style="white-space: pre;" direction="ltr">(33)99855-4669</text></g><g transform="translate(820.8016252390054 167.08333333333303) rotate(0 81.5 13)"><text x="0" y="19" font-family="Virgil, Segoe UI Emoji" font-size="20px" fill="#000000" text-anchor="start" style="white-space: pre;" direction="ltr">(47)99522-4996</text></g><g transform="translate(1055.8016252390053 120.58333333333303) rotate(0 63 13)"><text x="0" y="19" font-family="Virgil, Segoe UI Emoji" font-size="20px" fill="#000000" text-anchor="start" style="white-space: pre;" direction="ltr">2020-05-05</text></g><g transform="translate(1057.3016252390053 167.08333333333303) rotate(0 64 13)"><text x="0" y="19" font-family="Virgil, Segoe UI Emoji" font-size="20px" fill="#000000" text-anchor="start" style="white-space: pre;" direction="ltr">2020-02-05</text></g><g transform="translate(1060.3016252390053 212.08333333333303) rotate(0 63 13)"><text x="0" y="19" font-family="Virgil, Segoe UI Emoji" font-size="20px" fill="#000000" text-anchor="start" style="white-space: pre;" direction="ltr">2020-05-05</text></g><g transform="translate(1063.3016252390053 263.08333333333303) rotate(0 63 13)"><text x="0" y="19" font-family="Virgil, Segoe UI Emoji" font-size="20px" fill="#000000" text-anchor="start" style="white-space: pre;" direction="ltr">2020-05-05</text></g><g transform="translate(400.3016252390054 526.083333333333) rotate(0 56 13)"><text x="0" y="19" font-family="Virgil, Segoe UI Emoji" font-size="20px" fill="#000000" text-anchor="start" style="white-space: pre;" direction="ltr">Operacional</text></g><g transform="translate(398.8016252390054 572.583333333333) rotate(0 59 13)"><text x="0" y="19" font-family="Virgil, Segoe UI Emoji" font-size="20px" fill="#000000" text-anchor="start" style="white-space: pre;" direction="ltr">Estratégico</text></g><g transform="translate(409.8016252390054 666.583333333333) rotate(0 47 13)"><text x="0" y="19" font-family="Virgil, Segoe UI Emoji" font-size="20px" fill="#000000" text-anchor="start" style="white-space: pre;" direction="ltr">Marketing</text></g><g stroke-linecap="round" transform="translate(10 363.5) rotate(0 266.99999999999994 170)"><path d="M0 0 C172.83 0, 345.65 0, 534 0 M0 0 C176.01 0, 352.01 0, 534 0 M534 0 C534 69.52, 534 139.04, 534 340 M534 0 C534 104.44, 534 208.89, 534 340 M534 340 C321.96 340, 109.92 340, 0 340 M534 340 C342.51 340, 151.01 340, 0 340 M0 340 C0 204.85, 0 69.7, 0 0 M0 340 C0 225.06, 0 110.11, 0 0" stroke="#000000" stroke-width="2" fill="none"></path></g><g transform="translate(415.0000000000001 374.5) rotate(0 37.5 18)"><text x="0" y="26" font-family="Virgil, Segoe UI Emoji" font-size="28px" fill="#0b7285" text-anchor="start" style="white-space: pre;" direction="ltr">setor</text></g><g stroke-linecap="round"><g transform="translate(12 421) rotate(0 265.00000000000006 0)"><path d="M0 0 C88.33 0, 441.67 0, 530 0 M0 0 C88.33 0, 441.67 0, 530 0" stroke="#000000" stroke-width="2" fill="none"></path></g></g><g stroke-linecap="round"><g transform="translate(12 469) rotate(0 265.00000000000006 0)"><path d="M0 0 C88.33 0, 441.67 0, 530 0 M0 0 C88.33 0, 441.67 0, 530 0" stroke="#000000" stroke-width="2" fill="none"></path></g></g><g stroke-linecap="round"><g transform="translate(11.5 515) rotate(0 265.50000000000006 0)"><path d="M0 0 C88.5 0, 442.5 0, 531 0 M0 0 C88.5 0, 442.5 0, 531 0" stroke="#000000" stroke-width="2" fill="none"></path></g></g><g stroke-linecap="round"><g transform="translate(10.5 562) rotate(0 266.00000000000006 0)"><path d="M0 0 C88.67 0, 443.33 0, 532 0 M0 0 C88.67 0, 443.33 0, 532 0" stroke="#000000" stroke-width="2" fill="none"></path></g></g><g stroke-linecap="round"><g transform="translate(371.0000000000001 366) rotate(0 0 168)"><path d="M0 0 C0 56, 0 280, 0 336 M0 0 C0 56, 0 280, 0 336" stroke="#000000" stroke-width="2" fill="none"></path></g></g><g transform="translate(386.5000000000001 431.5) rotate(0 67.5 13)"><text x="0" y="19" font-family="Virgil, Segoe UI Emoji" font-size="20px" fill="#000000" text-anchor="start" style="white-space: pre;" direction="ltr">Administração</text></g><g transform="translate(421.5000000000001 480.5) rotate(0 33.5 13)"><text x="0" y="19" font-family="Virgil, Segoe UI Emoji" font-size="20px" fill="#000000" text-anchor="start" style="white-space: pre;" direction="ltr">Vendas</text></g><g stroke-linecap="round"><g transform="translate(12.000000000000455 609) rotate(0 264.49999999999983 0)"><path d="M0 0 C88.17 0, 440.83 0, 529 0 M0 0 C88.17 0, 440.83 0, 529 0" stroke="#000000" stroke-width="2" fill="none"></path></g></g><g transform="translate(164 374.5) rotate(0 95 18)"><text x="0" y="26" font-family="Virgil, Segoe UI Emoji" font-size="28px" fill="#0b7285" text-anchor="start" style="white-space: pre;" direction="ltr">funcionario_id</text></g><g transform="translate(235.5 432.5) rotate(0 10.5 13)"><text x="0" y="19" font-family="Virgil, Segoe UI Emoji" font-size="20px" fill="#000000" text-anchor="start" style="white-space: pre;" direction="ltr">12</text></g><g transform="translate(237.5 480.5) rotate(0 10.5 13)"><text x="0" y="19" font-family="Virgil, Segoe UI Emoji" font-size="20px" fill="#000000" text-anchor="start" style="white-space: pre;" direction="ltr">12</text></g><g transform="translate(238 525.5) rotate(0 10 13)"><text x="0" y="19" font-family="Virgil, Segoe UI Emoji" font-size="20px" fill="#000000" text-anchor="start" style="white-space: pre;" direction="ltr">13</text></g><g stroke-linecap="round"><g transform="translate(11 656.5) rotate(0 265.50000000000006 0)"><path d="M0 0 C88.5 0, 442.5 0, 531 0 M0 0 C88.5 0, 442.5 0, 531 0" stroke="#000000" stroke-width="2" fill="none"></path></g></g><g transform="translate(420.5000000000001 620.5) rotate(0 33.5 13)"><text x="0" y="19" font-family="Virgil, Segoe UI Emoji" font-size="20px" fill="#000000" text-anchor="start" style="white-space: pre;" direction="ltr">Vendas</text></g><g transform="translate(238 572.5) rotate(0 9.5 13)"><text x="0" y="19" font-family="Virgil, Segoe UI Emoji" font-size="20px" fill="#000000" text-anchor="start" style="white-space: pre;" direction="ltr">14</text></g><g transform="translate(240.5 619.5) rotate(0 9.5 13)"><text x="0" y="19" font-family="Virgil, Segoe UI Emoji" font-size="20px" fill="#000000" text-anchor="start" style="white-space: pre;" direction="ltr">14</text></g><g transform="translate(241.5 665.5) rotate(0 9.5 13)"><text x="0" y="19" font-family="Virgil, Segoe UI Emoji" font-size="20px" fill="#000000" text-anchor="start" style="white-space: pre;" direction="ltr">15</text></g><g stroke-linecap="round"><g transform="translate(154 365.5) rotate(0 0 168)"><path d="M0 0 C0 56, 0 280, 0 336 M0 0 C0 56, 0 280, 0 336" stroke="#000000" stroke-width="2" fill="none"></path></g></g><g transform="translate(20 374.5) rotate(0 60 18)"><text x="0" y="26" font-family="Virgil, Segoe UI Emoji" font-size="28px" fill="#0b7285" text-anchor="start" style="white-space: pre;" direction="ltr">setor_id</text></g><g transform="translate(75.5 432.5) rotate(0 3 13)"><text x="0" y="19" font-family="Virgil, Segoe UI Emoji" font-size="20px" fill="#000000" text-anchor="start" style="white-space: pre;" direction="ltr">1</text></g><g transform="translate(71 479.5) rotate(0 7.5 13)"><text x="0" y="19" font-family="Virgil, Segoe UI Emoji" font-size="20px" fill="#000000" text-anchor="start" style="white-space: pre;" direction="ltr">2</text></g><g transform="translate(72 527) rotate(0 7.5 13)"><text x="0" y="19" font-family="Virgil, Segoe UI Emoji" font-size="20px" fill="#000000" text-anchor="start" style="white-space: pre;" direction="ltr">3</text></g><g transform="translate(71 573) rotate(0 7 13)"><text x="0" y="19" font-family="Virgil, Segoe UI Emoji" font-size="20px" fill="#000000" text-anchor="start" style="white-space: pre;" direction="ltr">4</text></g><g transform="translate(71 619) rotate(0 6.5 13)"><text x="0" y="19" font-family="Virgil, Segoe UI Emoji" font-size="20px" fill="#000000" text-anchor="start" style="white-space: pre;" direction="ltr">5</text></g><g transform="translate(70 666) rotate(0 7 13)"><text x="0" y="19" font-family="Virgil, Segoe UI Emoji" font-size="20px" fill="#000000" text-anchor="start" style="white-space: pre;" direction="ltr">6</text></g><g transform="translate(15 10) rotate(0 93 23)"><text x="0" y="33" font-family="Virgil, Segoe UI Emoji" font-size="36px" fill="#e67700" text-anchor="start" style="white-space: pre;" direction="ltr">funcionario</text></g><g transform="translate(14 312.5) rotate(0 48 23)"><text x="0" y="33" font-family="Virgil, Segoe UI Emoji" font-size="36px" fill="#e67700" text-anchor="start" style="white-space: pre;" direction="ltr">setor</text></g></svg>