<svg version="1.1" xmlns="http://www.w3.org/2000/svg" viewBox="0 0 1579.3967495219888 266.00000000000045" width="1579.3967495219888" height="266.00000000000045" filter="invert(93%) hue-rotate(180deg)">
  <!-- svg-source:excalidraw -->
  <!-- payload-type:application/vnd.excalidraw+json --><!-- payload-version:2 --><!-- payload-start -->eyJ2ZXJzaW9uIjoiMSIsImVuY29kaW5nIjoiYnN0cmluZyIsImNvbXByZXNzZWQiOnRydWUsImVuY29kZWQiOiJ4nO2dW1Pi2raA39ev6Or9sk7Vwj3vl/20REBcdTAwMTBcdTAwMTBcdTAwMTG84KldVIRcdTAwMDBcdTAwMTFIMFx1MDAwNFx1MDAwMVetX7NcdTAwMWZ27Yf9K/qPnVx1MDAxObQlxMRcdTAwMTWiwejR7urWXFzMYGZ+XHUwMDE5lznGyFx1MDAxZr98+/bdWU707//49l1fdLSR0bW1+fff3O13uj01LFPtQqufp9bM7qyOXHUwMDFjOM5k+o+//319xl7HXHUwMDFhP5ylj/SxbjpTddz/qp+/fftj9a/nOrbecTSzP9JXJ6x2rS9cdTAwMDVcdTAwMDWC/s3Hlrm6Llx1MDAxNIRxKTBfXHUwMDFmYUxz6oKO3lW7e9poqq/3uJu+XHUwMDFmmePTw9b42G5cdTAwMTWbpYI9ydRum5n1dXvGaNRwlqOHT6V1XHUwMDA2M9sj1dSxraF+YXSdwc9B8Gx/Om9qqTFYn2Vbs/7A1KfuXGKAp63WROtcdTAwMTjO0v1cdTAwMTRgvfVhXHUwMDE4vMct1E9cdTAwMTjxPeD5Wl/ZPVx1MDAxZkG4XHUwMDA3JUSAUCEkkMwn14E1smxXrr89nL2W7FrrXGb7Sjyz+3SMY2vmdKLZ6o6tj5s/fmJIqdhcdTAwMTOScVwiKYJSXGLxdMhAN/pcdTAwMDPHlYaQPVx1MDAwMVx1MDAwNJeUQFxipPpuLY6+ui2II4mQkvpphyvDpNRdTZF/+kd1oNmTx9H7PnV/8Mjvip73zK/1ybNJV3uYXHUwMDA1kFGBKcRSYrpcdTAwMWXWkWFcdTAwMGXVTnM2XHUwMDFhrbdZneF64qy2/vlb8JR19IVcdTAwMTM4W1x1MDAxMSWhs1WNXHTEQv1cdTAwMTd5tt6Mm6hXvu23XHUwMDBidUHaXHUwMDEzUMXDyTDebIW7m62Y7SHEKcaEXHUwMDAxXHUwMDAxiPTNVrmHXHUwMDA1Q1x1MDAxOCMmqeTMj5Fnul5zJOgrpqtcdTAwMDTP5ydm/vnIuFx1MDAxMHzjMVx1MDAxM3k+roSJO1x1MDAxZpHAcIv5uL7rluk0jHt34JHY2FrQxsZouXGzV1x1MDAxM1VJ2puZXHUwMDFkNVx1MDAxNzXbsNre232tTXV17dUvY1x1MDAxYmftj4y+O6W/j/Te5lxcd1xm9ZR/2u1YXHUwMDFlXCI7SlxuTf06u9T1f1x1MDAxYcs2+oapjZrBXHUwMDEyxcKNYFx1MDAxNEabXHUwMDAwTFx1MDAwMEQgjlxmW1x1MDAxZteJLUqnR1ly0tnvZTqzzK2WdtVAJfbhJVx1MDAxMuOJ4Sg4QUpcdTAwMDSRXHUwMDFjXHUwMDBiuT1Pr3q+75Qn01x1MDAxYetpoGglRyx2MJZh7FCins6QkOjs7Neq5eVgWdJcdTAwMTaDXHUwMDAzYp2D+lnurpt2dpj0XHUwMDFiUjIxdiCmUeAhXHUwMDA0USYwxp+Znal1rVx1MDAwNiklXHUwMDAwrYWJR5Hnoei396iUgFHGeWSMWmeVuyxcdTAwMDDTlujlXHUwMDE32jGvXHUwMDE5dDZJO0aC7lx1MDAwZSPGolCkXGY/XHUwMDBlXHUwMDA0I56R/4RcdTAwMTjpY81cdTAwMTilXHUwMDAxoVx1MDAwN0HiXHUwMDE5cICH4kMkoZhcdTAwMTBcdTAwMTBdXHUwMDBilUvXSFRcdTAwMGYuhsNMbsiu7M5dsWOmXHUwMDFkXHUwMDFmXGIx3+RcdTAwMDeBxPiBXHUwMDEwRVx1MDAwMkhQITCnn5pcdTAwMWZHzSV1SCq00JMs8SjiNJRcIkCIZFx1MDAxOESPkOWPaVFcZmZsdjWlmePLXGbsXeaLqYdcYiO6M4i8XG7uJYg4ZFx1MDAwMFx1MDAwMk7pZ6ZIXV1rd7Su5n6KNKC0KVA8nl5cYuIp31x1MDAxNlx1MDAxM1x1MDAwMFh0o07Q8nJCZ43G9DRXOmpW9KWu5VNcdTAwMGZcdTAwMTT1XHUwMDA01Vx1MDAxM3eOQDSzTmDpXHUwMDFhdeRTq6Wp7lh2XHUwMDFiplx1MDAwMaWfosSCXGK/pJRcdTAwMTBcdTAwMTZcdTAwMTLJ6JZd7+iMXHUwMDFmz3XeXHUwMDEwQ9tcdTAwMTI1ViXn+Cb1XGZ5Z2ryll3AYkyQa1x1MDAwNCWBnMndRudcYkDCI+BuXHUwMDE4QulhXGK9zNBKtFx1MDAwMIYgXHKNLjBcdTAwMDGRco62iG9Do0qd25k2r/Vvry5Lg3x+WEu9XHUwMDFlUrPHp4b8XHUwMDBiWW+4vPlcdTAwMWMgNcRcdTAwMDFcdTAwMDQhgihcdTAwMTVcdTAwMWZlvWjqaLaTNcyuYfb9p+hmN2TPSNlPXHUwMDA31nhsOEqMXHUwMDEzyzBcdTAwMWT/XHUwMDExq9+7b9vWfKBrzzhQvzl038T9deuEXHUwMDAw92v93bf1XGZY/fD0/T9/XHUwMDBiPDpcdTAwMDO9h6tcdTAwMWK2PuFcdTAwMTfv/9uzJ/xbf7LHgYSQXHUwMDEyXHUwMDFj3Vx1MDAwNpzj5pznzqaZyVx1MDAxZFx1MDAxZlx1MDAxNFx1MDAwZVx1MDAwYrdcdTAwMTnJ01x1MDAxZlx1MDAxZlx1MDAxN+vJ/8DeXHUwMDBi6uuV7Fx1MDAwNazUXCJcdTAwMTKgvShcdTAwMTKcXHUwMDAzXHUwMDFjw1x1MDAwMvxib7XvTdnbOFrdr7dCj4QuTUkmsfrj8an/MqZeXHUwMDEwJUyHnfy4aOr13GWv2ezTtKMniD+mTnzXTlx1MDAxNj3P2uDPrFx1MDAxZHcxXVx1MDAxOXE8xtLUXHUwMDE3eqt9XHSih+VcdTAwMWKhh0AoempcdTAwMTdxycPRTc6T2dxcXIhB38qV+jfd9mlWr/KDtLNcdTAwMDch8qcs7Vx1MDAxNj7iMXFcdTAwMWb1XHUwMDFloUByRuQ7wLdcdTAwMWX4L/hcdTAwMDKPVvfrreCToSYnJFxcXHUwMDAyziiJbnP2TzBv8NNSbZDtXFzW2+Ake9mep1x1MDAxZT5cZn0xXHUwMDEzj4f7TvApc5MyTOPE8b/gW+37XGLwYU+2qFx1MDAxZj7EXHUwMDEww0Kg6Jm7OXrdudpv5ua3XHUwMDE3o/JFo3mRn1duU1x1MDAwZlx1MDAxZmV+s/O94cOEuziQXHUwMDE44cov9lb7Plx1MDAwMntcdTAwMDSHsidcdTAwMTiCUDBcdTAwMTl9XHUwMDAxmzHd0Y5cdTAwMGXgQJtpxeviuT0rWbW0o4f9NidLMM5JPeubT/B5Yjs/gy1ISISo3K3eI4BTXHUwMDEwa6ngk7PnvW2+XHUwMDEzXml1hibRI0aoXHUwMDAwXHUwMDEwRNd7lXL5WPl7l1x1MDAwNlx1MDAxY1cuT4xSXHUwMDExl1xmmX74Nm1OXGZeWOt+PXxcdTAwMDGL3c/gU862erxcdTAwMTLBdrvKQNxFpfXD4Vx1MDAwYr6fX97b5jvhdVYnXHTPXHUwMDFmdqunJIXRPT7dvlx1MDAxZGv9a/uqUN+3stedbrd5UU8/fGyPeopcdTAwMWI3006wx+tKXHUwMDAwxfXYvqBcdTAwMDdcdTAwMDFSXHUwMDBmXHUwMDA06X0o7Fx1MDAwMkUh3fK5L1x1MDAxNJ9cdTAwMWTtvW2+XHUwMDEzXodcIlx1MDAwYs364pJLSFx1MDAxMI++6tC9zcB9vV+f1OGRdZpTYzs6TH3wxa0zXHUwMDBlR5GAXHUwMDE3SjV3o1x1MDAxNSliQnKIdlx1MDAxYlx1MDAwNiWQXHUwMDAz+kXi86Nfq1x1MDAxNMNSx+hcdTAwMGJcdTAwMTX/XGZcdTAwMTAgyFx1MDAxNst/2aP9+uHlslWottpccrRcdTAwMDCLZmORdlx1MDAxMFx09mUzc7iXnFx1MDAxZURBiS9cdTAwMDHpzFx1MDAxY2FcIt+jrDNWJMabOFx1MDAwNja2vpA4XHUwMDA2g3PGPLmvu8hcdTAwMTmDf5EuXHUwMDE22n0gnFx1MDAxYu5cdTAwMTblMlx1MDAwZaJcdTAwMWKTd+WjfZvWXHUwMDBm+Hh4jYai2avYrVxc+sFhXHUwMDFi4GCUKDhBMcxn4CB1XHJcIiiD71DUuUNycCrIwW9OXHUwMDBlXHUwMDEySDnjcotcbprO+S0/a3fZfFFvjsldUVxm+lx1MDAxNfHhyGEsQXKCKmhcdTAwMDJUjnT7x1xiXHUwMDE2J93rXHUwMDAzkUNSQVx1MDAwZXlrciRSTlx1MDAxM4IserpIsVrXTa1TyouGM29I62goy1fpXHUwMDA3ZzN4qLyF91x1MDAwN1x1MDAwN1FGVn2aPjU4NFx1MDAxNeDQeOB4mlH5VVx1MDAwZVx1MDAxNJByLLbIL+5cdTAwMWV0Tm3cOi7rdnHeuzxcdTAwMWL3mJ76RCsqfalcdTAwMWVcdTAwMWMnSE5Q64BcdTAwMDByXGJnmFx1MDAxMlx1MDAxMSfT6uOQc2RN9ckgXHL0PEpcdTAwMTKLIFx1MDAxZZ6gj1x1MDAxMeHCu3L5V1x1MDAwMFx1MDAxNdpZfHQyPc5cdTAwMWTy1nGxycnk/jD1XHUwMDA1ZlRuLlx1MDAxYXtzp95cdTAwMWGfoPhcXFx1MDAwMD5MXHUwMDAySVx0j1x1MDAxM6H7OPjsm137x3/SgM+jJLHwXHUwMDEx4fWZXHUwMDE4YJdcdTAwMWZcdTAwMWXddJuW2uWWbDmLQba/mM/7+evG7Fx1MDAwMzRP8/HDXHUwMDEy5Cea4cZcdTAwMDCDXHUwMDEyyTg5XHUwMDE3XHUwMDFmh5+DXHUwMDFm/zVcdTAwMWRDS1x1MDAwM0A/RYlFXHUwMDEwXHUwMDA0L5Q4S8DdXHUwMDA2NtHDXHUwMDA2encpXHUwMDA3oHZzP4XjWrm4PFx1MDAwNIveKP1cYoFccoRcYkyu/ayIhFx1MDAxMOXMndXsU7s+XHUwMDA13TY1s5tcboSeZIlnxIXmP1xiQlx1MDAwNJZcdTAwMDREN+JcdTAwMWHdS7Ro1Vx1MDAxOam1l9dae1nSr8/P005cdTAwMTD31MUnv9YjXHUwMDAzenhcdTAwMDaoIciYoFxi7TjwRlx1MDAwNOdcdTAwMWVuk4bo1OqqqTzTp2mgaC1MPIxYXHUwMDE4RpAwXHUwMDA0lFmOokdcdTAwMTOu+HX7qlrF3VxubJ9cdTAwMWWY4tTYrzip51xibVYrYyhcdTAwMTLkiFx1MDAwN7U+f8ZcdTAwMTGmnEhcdMGuMaLCk6qSuC6ydX2smWmA6Kco8Vx1MDAxMFxubUWIIFx1MDAwMVx1MDAxMFxiXHUwMDAyo+fBVofdzoVT6sB7XHUwMDA39tu1+eDIZqlvtsHxZrNccsxIglxiXHUwMDA1Jd9cdTAwMDWtnqrJTIDY8eopkVx1MDAwMHKwM4ZyszstuJfnjlx0elx1MDAxMCRcdTAwMTY/XCI0fU45tO5cbirdopNnXvRcdTAwMDaHrHR3tFx1MDAwMNNl9vp8elx1MDAwMFJcdTAwMWZO4L5cdTAwMWWEXHUwMDA0oiQ1UKTkXHUwMDAzSJUpXHUwMDA3MZAx8shfhVx1MDAwZkIgVtl+LHyqutlNh1x1MDAxOfcoSTyAwnvhXCIhqYBcdTAwMTJFJ8jM5G/LXHUwMDBiRu4v7ys5zJ37XHUwMDExyae+XHUwMDEwQ+LNaEKyvlx1MDAxMIyWv0OEUDZcdTAwMWPfNUBcdTAwMWKXTFx1MDAxYaBcdTAwMWLr977bxfnptU2PXHUwMDAz+l5cdTAwMThtyFx1MDAxM1x1MDAwYqZcdTAwMTdK6Vx1MDAwMVBuJlwiW7TwzFx1MDAxY2Xs80FLu7spXHUwMDE5eqd4TuekW007TN7XMz2uXHUwMDBlJZqYXHUwMDEwLcDNOaV4Iy66XHUwMDBinChcdTAwMDDUY0EmjZNmdm3dzV5KXHUwMDE3VUFixYJcdTAwMGKCcLo4XHUwMDA1XGZcYrRFuCGfP2S02ZeoVJxaoreoWMZ5NvV0PVs7StJXgjygb3uAqkJcZlxuznacvECBctJ25yt1XGazu/zdmjkjy1x1MDAxYaZcdTAwMDWt50LFM1x1MDAwMcPzUFx1MDAxOZBcXDJEo8cgllx1MDAwYm1+VTgqtJu1s1x1MDAxNi9cdTAwMTTL3Zu7y9RzRX1VR5AmmcHNXHUwMDAzKuGDtFx1MDAxNuFIMoE/9bJs73EhZ7zyYX5falx1MDAwM8typzJcZm5GvWPCXpAuXHUwMDE2ai+9uFx1MDAwN3EuIdzitaLlhm40Zp3MuMb27XZvmW+dktRHzJ+/eYQn1+4lolx1MDAwNlPqizLiba//XHRB+1x1MDAxNdP/kVJQijKQkFRksfpFimdcdTAwMTZ6XHUwMDFhxD6LYHA11lx1MDAxMm+RUnTrZK/Or6rFdlczxI1k+Ws+Pf5wTCn9lVx1MDAxY1MsWuVcdTAwMWWilDBcdOinTon4XHUwMDE1YzWDXHUwMDExXHUwMDAwXHUwMDE5tyw1XHUwMDFkTG1IXHUwMDE0XHUwMDBmKVx1MDAxMKqmqGRSSkaja6nR/s2hXSRmJZub0Gb5fFRiXHUwMDE3hVx1MDAwZkeUt07/7YmKtCjFqSBcdTAwMDBcdTAwMTD0/1x1MDAwMCilXHUwMDEyMoQxmVx1MDAxZaCeJIpcdFRog1smuNtxZYtuR2OzXHUwMDAz5y1ukoo1XHUwMDE4W3P9/Gp6n/ri8udAvfTO4FdcdTAwMDNcdTAwMTUp4UhZXHUwMDA22G1381x1MDAwZWnju4tcbv5KuJq+XHUwMDE0oVxmUc/tVFx1MDAwMLUpUSygwpd9sdu1WLAtXCKBXHUwMDE1s35xq1x1MDAxZlwi2NAmuOM43Vx1MDAwNSo3Us9cdTAwMTP2uDa7WLWKVInBXHUwMDE4lJwx8qmJQlx1MDAwMIFcZqDqb1x1MDAxYWjySFx1MDAxM081oVD3XHQhd1x1MDAxZFx1MDAxZostitB7+Zadt3jxTtwtltNcdTAwMWJ8mLtOfVx1MDAxN0yFkrdcdTAwMDQwceWEomXxQUpcYkO7XbF6XHUwMDE3klCqSELxSfK0qnrmNSmTZKNA7S9T+eRhu3dw0lxc3JY6XHUwMDBluoRmYZjrfVx1MDAwMJKYnySWYHQvmlJcIlx1MDAxOHPI3sVv+lJKcZVS+LtQqXooMrRNW/RGlVx1MDAxZczrx4c1Ojy/LGeN0315nPrWKIoluedP7UswXHUwMDA2XHUwMDExjSVO1KNMcPlcdTAwMGWR8i+WYrZ8XGKN5Vx1MDAxMVx1MDAwNJXO4lwiuqtUxKjSamfxZFxcOqujYXVUOqrbqSfJ+9bEXHUwMDFkuEqe9dqXglx1MDAwZlx1MDAwMCNMyOdcdTAwMGU+7HfHhmmoj6D9+PePf1x1MDAwNb+pe9fF6z6RYpp64ZVP0M11QpJGp1xu0YtcXLl3sOi0Tuowd2jMkGGmP6BHpV8/Jeo1wUgruVx1MDAwMlBcbjZadX5CqmpcdTAwMTPdVjfKMtNRveFcdTAwMTUnnoZcbs0/QshccichXHUwMDEy3W9cdTAwMWGVbsqFZb6frZtcdTAwMWTtwin1c/1cdTAwMWX8XHUwMDAwLG1cdTAwMDbzXHUwMDEyzutcdTAwMGJ6a3dQXHUwMDE1XHUwMDA3ct9cdTAwMDbgrc/6hDDlXVXg/PhP3+ikQj9tyFx1MDAxM1x1MDAwYqfwgFx1MDAxZSTue0443VwiotcsXHUwMDE3J6g3Olx1MDAxM1x1MDAwN1DvL/FcdTAwMTJcdTAwMTfYIP2+k7/HSrL5fDJaOlx1MDAxZiSUXGJcdTAwMTDrXaZcdTAwMWZcdTAwMDenqmZcdTAwMGZ1x+0vnlx1MDAwMpbWwrxcYlL4XHUwMDBiokKjXHUwMDEwlEJEodxcIllvYOs9mS3YXHUwMDE5cFfTlze1eePkJP2hcY43QVJcdTAwMWVjgiBcdTAwMDVVRj1/O1x1MDAxYoOUMVx1MDAwNmCMeN5r385cdTAwMTaLo0/ej3/j6O3fzlx1MDAxNu5ihWoxZd4zuFVb8d6i3Cb180Khd3PKco3T25Z00p+DxPmmf5Vwq8pISUhKbMBcdGQ79rAowVx1MDAxMO2uMvFcXNGjpaK091GSWFxisVCE3Fx1MDAxNslSbOFW8YvqTbW/1OjpLFsm5j5tXHUwMDE1p6mv6oCc+otcdTAwMTGT7M5cdTAwMTIxREGxZOpcdEZ23J5cdTAwMDVcdTAwMGLk0eVfIYottVx1MDAxMVxuXHL4cSg4lyx6w7Bhr12qXHUwMDE1XHUwMDBl9y94fzmXoN+0eo30XHUwMDA30Tn3scSS67lcdTAwMTdNXHUwMDE1SaxcZkHsbfCxXHUwMDEzkFxiXHUwMDAzbHd9jj6HJkLhlbtMQomJ2KLL0dXwXGZcdTAwMWTe9007a4yOKt1cXLuwaKS+ZSXkYjPE93LHftrD3Vx1MDAwZYlPXHUwMDEwjVb3RFxc04rtuvEroVLuXHUwMDEwoeOzSiVcclx1MDAwMK3keMDnl0dv6rs2mTRcdTAwMWM1Omr/XHUwMDAzTN/vXGZ9nn1+t//WW32556/gc6e57lx1MDAwZfRcdTAwMWZ//vLn/1x1MDAwMdHxyWIifQ==<!-- payload-end -->
  <defs>
    <style>
      @font-face {
        font-family: "Virgil";
        src: url("https://excalidraw.com/Virgil.woff2");
      }
      @font-face {
        font-family: "Cascadia";
        src: url("https://excalidraw.com/Cascadia.woff2");
      }
    </style>
  </defs>
  <rect x="0" y="0" width="1579.3967495219888" height="266.00000000000045" fill="#ffffff"></rect><g stroke-linecap="round" transform="translate(10.5 11.191204588909613) rotate(0 779.4483747609944 122.40439770554542)"><path d="M0 0 C538.75 0, 1077.5 0, 1558.9 0 M0 0 C518.35 0, 1036.71 0, 1558.9 0 M1558.9 0 C1558.9 82.09, 1558.9 164.19, 1558.9 244.81 M1558.9 0 C1558.9 53.8, 1558.9 107.61, 1558.9 244.81 M1558.9 244.81 C1033.11 244.81, 507.32 244.81, 0 244.81 M1558.9 244.81 C1112.75 244.81, 666.61 244.81, 0 244.81 M0 244.81 C0 167.66, 0 90.52, 0 0 M0 244.81 C0 159.93, 0 75.04, 0 0" stroke="#000000" stroke-width="2" fill="none"></path></g><g transform="translate(19.727533460804693 19.386233269597625) rotate(0 95 18)"><text x="0" y="26" font-family="Virgil, Segoe UI Emoji" font-size="28px" fill="#0b7285" text-anchor="start" style="white-space: pre;" direction="ltr">funcionario_id</text></g><g transform="translate(276.4999999999998 18) rotate(0 31.5 18)"><text x="0" y="26" font-family="Virgil, Segoe UI Emoji" font-size="28px" fill="#0b7285" text-anchor="start" style="white-space: pre;" direction="ltr">nome</text></g><g transform="translate(375.4999999999998 19) rotate(0 67.5 18)"><text x="0" y="26" font-family="Virgil, Segoe UI Emoji" font-size="28px" fill="#0b7285" text-anchor="start" style="white-space: pre;" direction="ltr">sobrenome</text></g><g transform="translate(535.4999999999998 19) rotate(0 33 18)"><text x="0" y="26" font-family="Virgil, Segoe UI Emoji" font-size="28px" fill="#0b7285" text-anchor="start" style="white-space: pre;" direction="ltr">email</text></g><g transform="translate(820.4999999999998 20) rotate(0 56 18)"><text x="0" y="26" font-family="Virgil, Segoe UI Emoji" font-size="28px" fill="#0b7285" text-anchor="start" style="white-space: pre;" direction="ltr">telefone</text></g><g transform="translate(1008.4999999999998 20) rotate(0 109.5 18)"><text x="0" y="26" font-family="Virgil, Segoe UI Emoji" font-size="28px" fill="#0b7285" text-anchor="start" style="white-space: pre;" direction="ltr">data_cadastro</text></g><g transform="translate(1254.4999999999998 19) rotate(0 53 18)"><text x="0" y="26" font-family="Virgil, Segoe UI Emoji" font-size="28px" fill="#0b7285" text-anchor="start" style="white-space: pre;" direction="ltr">setor_1</text></g><g transform="translate(1430.4999999999998 20) rotate(0 59 18)"><text x="0" y="26" font-family="Virgil, Segoe UI Emoji" font-size="28px" fill="#0b7285" text-anchor="start" style="white-space: pre;" direction="ltr">setor_2</text></g><g stroke-linecap="round"><g transform="translate(266.4999999999998 11) rotate(0 -0.5 122)"><path d="M0 0 C-0.17 40.67, -0.83 203.33, -1 244 M0 0 C-0.17 40.67, -0.83 203.33, -1 244" stroke="#000000" stroke-width="2" fill="none"></path></g></g><g stroke-linecap="round"><g transform="translate(367.4999999999998 10) rotate(0 0 123)"><path d="M0 0 C0 41, 0 205, 0 246 M0 0 C0 41, 0 205, 0 246" stroke="#000000" stroke-width="2" fill="none"></path></g></g><g stroke-linecap="round"><g transform="translate(525.4999999999998 14) rotate(0 0 119.5)"><path d="M0 0 C0 39.83, 0 199.17, 0 239 M0 0 C0 39.83, 0 199.17, 0 239" stroke="#000000" stroke-width="2" fill="none"></path></g></g><g stroke-linecap="round"><g transform="translate(812.4999999999998 14) rotate(0 0 120.5)"><path d="M0 0 C0 40.17, 0 200.83, 0 241 M0 0 C0 40.17, 0 200.83, 0 241" stroke="#000000" stroke-width="2" fill="none"></path></g></g><g stroke-linecap="round"><g transform="translate(1000.4999999999998 13) rotate(0 0 120.5)"><path d="M0 0 C0 40.17, 0 200.83, 0 241 M0 0 C0 40.17, 0 200.83, 0 241" stroke="#000000" stroke-width="2" fill="none"></path></g></g><g stroke-linecap="round"><g transform="translate(1245.4999999999998 13) rotate(0 0 120.5)"><path d="M0 0 C0 40.17, 0 200.83, 0 241 M0 0 C0 40.17, 0 200.83, 0 241" stroke="#000000" stroke-width="2" fill="none"></path></g></g><g stroke-linecap="round"><g transform="translate(12.499999999999773 61) rotate(0 777.0000000000001 0)"><path d="M0 0 C259 0, 1295 0, 1554 0 M0 0 C259 0, 1295 0, 1554 0" stroke="#000000" stroke-width="2" fill="none"></path></g></g><g stroke-linecap="round"><g transform="translate(10.499999999999773 109) rotate(0 778.0000000000001 0)"><path d="M0 0 C259.33 0, 1296.67 0, 1556 0 M0 0 C259.33 0, 1296.67 0, 1556 0" stroke="#000000" stroke-width="2" fill="none"></path></g></g><g stroke-linecap="round"><g transform="translate(9.999999999999886 155) rotate(0 778.5 0)"><path d="M0 0 C259.5 0, 1297.5 0, 1557 0 M0 0 C259.5 0, 1297.5 0, 1557 0" stroke="#000000" stroke-width="2" fill="none"></path></g></g><g stroke-linecap="round"><g transform="translate(10.999999999999886 202) rotate(0 778 0)"><path d="M0 0 C259.33 0, 1296.67 0, 1556 0 M0 0 C259.33 0, 1296.67 0, 1556 0" stroke="#000000" stroke-width="2" fill="none"></path></g></g><g transform="translate(118.49999999999977 71.5) rotate(0 10.5 13)"><text x="0" y="19" font-family="Virgil, Segoe UI Emoji" font-size="20px" fill="#000000" text-anchor="start" style="white-space: pre;" direction="ltr">12</text></g><g transform="translate(119.49999999999977 121.5) rotate(0 10 13)"><text x="0" y="19" font-family="Virgil, Segoe UI Emoji" font-size="20px" fill="#000000" text-anchor="start" style="white-space: pre;" direction="ltr">13</text></g><g transform="translate(119.49999999999977 166.5) rotate(0 9.5 13)"><text x="0" y="19" font-family="Virgil, Segoe UI Emoji" font-size="20px" fill="#000000" text-anchor="start" style="white-space: pre;" direction="ltr">14</text></g><g transform="translate(120.49999999999977 217.5) rotate(0 9.5 13)"><text x="0" y="19" font-family="Virgil, Segoe UI Emoji" font-size="20px" fill="#000000" text-anchor="start" style="white-space: pre;" direction="ltr">15</text></g><g transform="translate(280.4999999999998 73.5) rotate(0 33 13)"><text x="0" y="19" font-family="Virgil, Segoe UI Emoji" font-size="20px" fill="#000000" text-anchor="start" style="white-space: pre;" direction="ltr">Joseph</text></g><g transform="translate(282.4999999999998 117) rotate(0 28 13)"><text x="0" y="19" font-family="Virgil, Segoe UI Emoji" font-size="20px" fill="#000000" text-anchor="start" style="white-space: pre;" direction="ltr">André</text></g><g transform="translate(282.4999999999998 167) rotate(0 29.5 13)"><text x="0" y="19" font-family="Virgil, Segoe UI Emoji" font-size="20px" fill="#000000" text-anchor="start" style="white-space: pre;" direction="ltr">Cíntia</text></g><g transform="translate(273.4999999999998 216) rotate(0 44.5 13)"><text x="0" y="19" font-family="Virgil, Segoe UI Emoji" font-size="20px" fill="#000000" text-anchor="start" style="white-space: pre;" direction="ltr">Fernanda</text></g><g transform="translate(401.4999999999998 71.5) rotate(0 46.5 13)"><text x="0" y="19" font-family="Virgil, Segoe UI Emoji" font-size="20px" fill="#000000" text-anchor="start" style="white-space: pre;" direction="ltr">Rodrigues</text></g><g transform="translate(407.4999999999998 118.5) rotate(0 39 13)"><text x="0" y="19" font-family="Virgil, Segoe UI Emoji" font-size="20px" fill="#000000" text-anchor="start" style="white-space: pre;" direction="ltr">Freeman</text></g><g transform="translate(416.4999999999998 164.5) rotate(0 28.5 13)"><text x="0" y="19" font-family="Virgil, Segoe UI Emoji" font-size="20px" fill="#000000" text-anchor="start" style="white-space: pre;" direction="ltr">Duval</text></g><g transform="translate(408.4999999999998 212.5) rotate(0 35 13)"><text x="0" y="19" font-family="Virgil, Segoe UI Emoji" font-size="20px" fill="#000000" text-anchor="start" style="white-space: pre;" direction="ltr">Mendes</text></g><g transform="translate(613.4999999999998 71.5) rotate(0 60 13)"><text x="0" y="19" font-family="Virgil, Segoe UI Emoji" font-size="20px" fill="#000000" text-anchor="start" style="white-space: pre;" direction="ltr">jo@gmail.com</text></g><g transform="translate(571.4999999999998 117.5) rotate(0 99.5 13)"><text x="0" y="19" font-family="Virgil, Segoe UI Emoji" font-size="20px" fill="#000000" text-anchor="start" style="white-space: pre;" direction="ltr">andre1990@gmail.com</text></g><g transform="translate(582.4999999999998 164.5) rotate(0 86 13)"><text x="0" y="19" font-family="Virgil, Segoe UI Emoji" font-size="20px" fill="#000000" text-anchor="start" style="white-space: pre;" direction="ltr">cindy@outlook.com</text></g><g transform="translate(534.4999999999998 215.5) rotate(0 137 13)"><text x="0" y="19" font-family="Virgil, Segoe UI Emoji" font-size="20px" fill="#000000" text-anchor="start" style="white-space: pre;" direction="ltr">fernandamendes@yahoo.com11</text></g><g transform="translate(820.4999999999998 73) rotate(0 86 13)"><text x="0" y="19" font-family="Virgil, Segoe UI Emoji" font-size="20px" fill="#000000" text-anchor="start" style="white-space: pre;" direction="ltr">(35)998552-1445</text></g><g transform="translate(820.4999999999998 215) rotate(0 80.5 13)"><text x="0" y="19" font-family="Virgil, Segoe UI Emoji" font-size="20px" fill="#000000" text-anchor="start" style="white-space: pre;" direction="ltr">(33)99200-1556</text></g><g transform="translate(820.4999999999998 164) rotate(0 83.5 13)"><text x="0" y="19" font-family="Virgil, Segoe UI Emoji" font-size="20px" fill="#000000" text-anchor="start" style="white-space: pre;" direction="ltr">(33)99855-4669</text></g><g transform="translate(820.4999999999998 118) rotate(0 81.5 13)"><text x="0" y="19" font-family="Virgil, Segoe UI Emoji" font-size="20px" fill="#000000" text-anchor="start" style="white-space: pre;" direction="ltr">(47)99522-4996</text></g><g transform="translate(1055.4999999999998 71.5) rotate(0 63 13)"><text x="0" y="19" font-family="Virgil, Segoe UI Emoji" font-size="20px" fill="#000000" text-anchor="start" style="white-space: pre;" direction="ltr">2020-05-05</text></g><g transform="translate(1056.9999999999998 118) rotate(0 64 13)"><text x="0" y="19" font-family="Virgil, Segoe UI Emoji" font-size="20px" fill="#000000" text-anchor="start" style="white-space: pre;" direction="ltr">2020-02-05</text></g><g transform="translate(1059.9999999999998 163) rotate(0 63 13)"><text x="0" y="19" font-family="Virgil, Segoe UI Emoji" font-size="20px" fill="#000000" text-anchor="start" style="white-space: pre;" direction="ltr">2020-05-05</text></g><g transform="translate(1062.9999999999998 214) rotate(0 63 13)"><text x="0" y="19" font-family="Virgil, Segoe UI Emoji" font-size="20px" fill="#000000" text-anchor="start" style="white-space: pre;" direction="ltr">2020-05-05</text></g><g transform="translate(1264.4999999999998 71.5) rotate(0 67.5 13)"><text x="0" y="19" font-family="Virgil, Segoe UI Emoji" font-size="20px" fill="#000000" text-anchor="start" style="white-space: pre;" direction="ltr">Administração</text></g><g transform="translate(1282.9999999999998 118) rotate(0 56 13)"><text x="0" y="19" font-family="Virgil, Segoe UI Emoji" font-size="20px" fill="#000000" text-anchor="start" style="white-space: pre;" direction="ltr">Operacional</text></g><g transform="translate(1275.4999999999998 164.5) rotate(0 59 13)"><text x="0" y="19" font-family="Virgil, Segoe UI Emoji" font-size="20px" fill="#000000" text-anchor="start" style="white-space: pre;" direction="ltr">Estratégico</text></g><g transform="translate(1282.4999999999998 215.5) rotate(0 47 13)"><text x="0" y="19" font-family="Virgil, Segoe UI Emoji" font-size="20px" fill="#000000" text-anchor="start" style="white-space: pre;" direction="ltr">Marketing</text></g><g stroke-linecap="round"><g transform="translate(1422.4999999999998 11.5) rotate(0 0 120.5)"><path d="M0 0 C0 40.17, 0 200.83, 0 241 M0 0 C0 40.17, 0 200.83, 0 241" stroke="#000000" stroke-width="2" fill="none"></path></g></g><g transform="translate(1458.4999999999998 73.5) rotate(0 33.5 13)"><text x="0" y="19" font-family="Virgil, Segoe UI Emoji" font-size="20px" fill="#000000" text-anchor="start" style="white-space: pre;" direction="ltr">Vendas</text></g><g transform="translate(1441.4999999999998 118.5) rotate(0 56 13)"><text x="0" y="19" font-family="Virgil, Segoe UI Emoji" font-size="20px" fill="#000000" text-anchor="start" style="white-space: pre;" direction="ltr">Operacional</text></g><g transform="translate(1461.4999999999998 166) rotate(0 33.5 13)"><text x="0" y="19" font-family="Virgil, Segoe UI Emoji" font-size="20px" fill="#000000" text-anchor="start" style="white-space: pre;" direction="ltr">Vendas</text></g><g transform="translate(1465.4999999999998 217.5) rotate(0 26 13)"><text x="0" y="19" font-family="Virgil, Segoe UI Emoji" font-size="20px" fill="#5f3dc4" text-anchor="start" style="white-space: pre;" direction="ltr">NULL</text></g></svg>