<svg width="70" height="63" viewBox="0 0 70 63" fill="none" xmlns="http://www.w3.org/2000/svg">
<path d="M35 62C34.0319 62 33.0986 61.6464 32.3712 61.004C29.6242 58.582 26.9757 56.306 24.6391 54.2984L24.6271 54.2879C17.7764 48.4014 11.8605 43.3179 7.74438 38.3103C3.14316 32.712 1 27.4041 1 21.6055C1 15.9717 2.91592 10.7742 6.39447 6.96964C9.91452 3.12013 14.7445 1 19.9963 1C23.9216 1 27.5163 2.25126 30.6805 4.71873C32.2773 5.96424 33.7248 7.48856 35 9.26658C36.2757 7.48856 37.7227 5.96424 39.32 4.71873C42.4842 2.25126 46.0789 1 50.0042 1C55.2555 1 60.086 3.12013 63.606 6.96964C67.0846 10.7742 69 15.9717 69 21.6055C69 27.4041 66.8574 32.712 62.2561 38.3097C58.14 43.3179 52.2246 48.4009 45.3749 54.2869C43.0341 56.2977 40.3815 58.5773 37.6282 61.0051C36.9014 61.6464 35.9676 62 35 62ZM19.9963 5.01638C15.8703 5.01638 12.08 6.67671 9.32257 9.69187C6.52417 12.7525 4.98282 16.9834 4.98282 21.6055C4.98282 26.4824 6.78046 30.844 10.811 35.7476C14.7067 40.4874 20.5011 45.4663 27.2102 51.2314L27.2227 51.2419C29.5682 53.2574 32.227 55.5423 34.9943 57.982C37.7782 55.5376 40.4412 53.249 42.7913 51.2304C49.4999 45.4653 55.2939 40.4874 59.1895 35.7476C63.2195 30.844 65.0172 26.4824 65.0172 21.6055C65.0172 16.9834 63.4758 12.7525 60.6774 9.69187C57.9205 6.67671 54.1297 5.01638 50.0042 5.01638C46.9817 5.01638 44.2066 5.98516 41.7563 7.89553C39.5727 9.59875 38.0516 11.7518 37.1598 13.2584C36.7011 14.0331 35.8939 14.4955 35 14.4955C34.1061 14.4955 33.2989 14.0331 32.8402 13.2584C31.9489 11.7518 30.4278 9.59875 28.2437 7.89553C25.7934 5.98516 23.0183 5.01638 19.9963 5.01638Z" fill="#2FC18C" stroke="#2FC18C" stroke-width="0.4"/>
</svg>
