<svg version="1.1" xmlns="http://www.w3.org/2000/svg" viewBox="0 0 2236.097811074868 875.25" width="2236.097811074868" height="875.25" filter="invert(93%) hue-rotate(180deg)">
  <!-- svg-source:excalidraw -->
  <!-- payload-type:application/vnd.excalidraw+json --><!-- payload-version:2 --><!-- payload-start -->eyJ2ZXJzaW9uIjoiMSIsImVuY29kaW5nIjoiYnN0cmluZyIsImNvbXByZXNzZWQiOnRydWUsImVuY29kZWQiOiJ4nO1dWXPayFx1MDAxNn7Pr0h5Xlx1MDAwN6b3Zd5sNlx1MDAxYu9cdTAwMGK28a0pl1xmXHUwMDAyZFYjecFT899vS7ZRa0VcdTAwMTBcdTAwMTNDXHUwMDAyqUqCpEYt6XznO2vr32/fv285k5G59ff3LfOlYfSs5th43vrT3f5kjm1rOFC7kPfdXHUwMDFlPo5cdTAwMWLekVx1MDAxZMdcdTAwMTnZf//1lz9cIt9cdTAwMTj230aZPbNvXHUwMDBlXHUwMDFjW1x1MDAxZPc/9f3793+9v9VcdTAwMWWr6Y4tXFxUXHUwMDBiXHUwMDA0VdE1OGqfsN7tbqd9eexccvVcdTAwMGX6mMzYbDjGoN0z/V0vajtmfPp94s6Mi+n3Z6vpdNQ2XHTJdFvHtNpcdTAwMWTHPVCw6ca33/37O5husZ3xsGtcdTAwMTaGveHYPflcdTAwMWbA+/invjNcdTAwMWHd9nj4OGhOj3HGxsBcdTAwMWVcdTAwMTljda3+cS2r1zt3Jr23u2Q0Oo9j7Vx1MDAwMt7OcvU+TVx1MDAxONo+XHUwMDFkZ1x1MDAwZtU99Uep07Y7XHUwMDAz07ZcdTAwMDNjhiOjYTnuLYDAv1x1MDAwZXeOo72md/P/XHT/fsdcdTAwMTiP3n9ny3a/aDMzTffhYCggXHUwMDA0XHUwMDE04elcdTAwMGVfXHUwMDA2OGHhrUfDgSdcdTAwMGZcYjAuXHUwMDA15tJ/NpZdVILgeL/aMnq26d9K9y6WfCFcdTAwMTk89nrTnY+jpvE2XGIyKlxiJJRcIk7ldH/PXHUwMDFhdMNjesNG1z+Pt/W/P+Mkb/RaXHUwMDE5lDqFM1x1MDAwN1xyWrd9ozO46fRHUclzzFx1MDAxNyckdFx1MDAxY1x1MDAwNYVcdTAwMGXRPI2IXHUwMDFkXHUwMDA0LCp2ZFx1MDAxZakzXHUwMDE557+h1Lnig1x1MDAxOYpcdTAwMTc7iGCS2EEqOcSUfr3Q+TLkys7f7rO2+kZPe0LDgXNuvZqeXHUwMDA2XHUwMDBibC1cdTAwMWJ9qzdcdNxk90e2e1bbvfytntnSnrS6XHUwMDAzjqV07nS3M1x1MDAxY+nyYptqst5Z/HvZUGcx1NbxXjN8XHUwMDE1w7HVtlx1MDAwNkbvXCI47Vx1MDAxNFxmbe+Aq5NcIqw/8MPx6SF6XHUwMDE4Y5nbz4IhylhcdTAwMTBDQkZcdTAwMTDEcFx1MDAxNEB4XHUwMDFlXHUwMDAwQcGIcffbXHUwMDAxiEhGMCScx+GHyCT8MEY45XhcdTAwMDXhM1x1MDAxOPbNWPAg8TPAg9hcIuDxJp1cdTAwMDKd2qtTmew/PPZBXHUwMDE1l82WKc5H44ss0OFcdTAwMTCGoFx1MDAxM2PzxHDPXHUwMDA2OrOho/iDXHUwMDEzIDCJsIxHMFx1MDAxMUR9YEcog1x1MDAwN1BKV8DiiaDHtEdmw1o/XHUwMDAwfcw7XHUwMDA1Q1S8XHUwMDBlRmZcdTAwMTmycqlerVhPxmnNXHUwMDEyWTAkNG5JwtCGflx1MDAxNsSQIJhghklcdTAwMWP/XGKSXHUwMDA0Iaj8XHUwMDA1SVx1MDAxMNegtzpcdTAwMTiyzZfh2lx1MDAwMcibdFxuesZnXHUwMDEzyipX1s7+Zfm2XGYmjyVR62ZBj3pQQfRIXHUwMDEwQVx1MDAwZt+gZ0HvR0ikhFx1MDAxNsahJ2rSTVx0SEpcdTAwMDAoliuIXHUwMDFkq2k014993madglx1MDAxZaP+fPt089Bz2s9dY+9+N3d0cM+yoFx1MDAwN0JcYkLwgVx1MDAxMfhAusHPQvhRhlx1MDAxOFFcdTAwMWOC44NcdTAwMDc0XHQ/kHEoiYRgXHUwMDE1XHUwMDExpHZcdTAwMWI969VoXHUwMDE460dC+txT0HRcdTAwMDLqZO9cYlx1MDAxZo2LN5yC0aQ/vLyMXHTGeVNcdKBcdDOZ51x1MDAxMCn1hyBkUjfB3VuAMYlgSz3lvJBAUiBcdTAwMTlDXHUwMDE08yjSwFx1MDAxY0D75YPD3rVEzTyCKcVcdTAwMDCBOKRcdTAwMTGWaOchwFx1MDAxMWFcdTAwMTTQVbLzRkNLz1G4XHUwMDFm/3/f/YfvfZn+/58/Y49OlK/Q6G+hX9nqXHUwMDE5tlNcdTAwMTj2+5ajLuvEnVJ4+rZjjJ1cdTAwMWRr0LRcdTAwMDbt8D5z0EzY443aXHUwMDFlj4fPXHUwMDFk04ggVo1cdTAwMGLvS1x1MDAwMerdy/h6dNm8qJaak1xcafLyVL4+kFmAykTI5YpJ1fjCqSVqfJ29wWJcdTAwMDJcdTAwMTZcdTAwMTFEgkFMUCS45zJiSsRcXCBcdTAwMDRcdTAwMDVcdTAwMTarRHqfXG7FwNFKlNZcdTAwMWN8neIppD1g17bPOtVR6YVcdTAwMTXgSy1cdTAwMGL4XHUwMDA0XHUwMDBl50mj4fZY8PmY3YAvXHUwMDAxfJhyrNw1XHUwMDFjhz2RmCTlXHUwMDEyKrj+LsDDa1x1MDAwZTyJm4274SG8ylx1MDAxZL9sW/WT0kGuX89cdTAwMDI8qeUj51x1MDAwMt7GXHUwMDAynW2BXHUwMDAyRpXpz6NheVx1MDAwZl+JrCdcdTAwMTGjSHmIq5TqWib41t3k3L7bLlZZiTObOPSKPNh7O3sxkZYo+CBcYtucXCJcdTAwMWFpiUWff9hcdTAwMDZ9if6fXHUwMDAwklx1MDAxM1wiXCIxla20QCXhXHUwMDEyc4SW5P0x//JWXHUwMDA0fHBtwZdSeqeVXHUwMDAyXHUwMDEymKxogVx1MDAxMJRhLLI86/cw0G7n5q5wM6w18Vx1MDAwM+K9wc5F40isXHUwMDBlZKLKwFMzklx1MDAwNUlcdTAwMWVcIlx1MDAxMjr5j2uLXHUwMDBmdUVhTGBYr2Z8h6dggDJImH9Ji1x1MDAwNlbDKNRcdTAwMDb/OFx1MDAwNlPUvtO4vcDHjdrl5L5XvHXqlmXWTzNcdTAwMDXYJVx1MDAwZlx1MDAwNtg5jKvPXHUwMDEzMXG/TX1ehvJcIkDVXHUwMDFkRiQ+ws5cIpun6oBAXGZcdTAwMTiRYjlFXHUwMDEyi6n+j1x1MDAxMHvj0U34XGbHpr12VXra1FP1eNA+0p5cdTAwMTnHXCLxmTFBMFV4yq7CXHUwMDBi1Xubnlx1MDAxN8R+bUDqjYtm0elf5FZH+JNVeFx1MDAxZUpcdTAwMDGQJFx1MDAxMFx1MDAwMkSDdiPUYpVLUOh5XHUwMDA1XHUwMDBijClcdTAwMDOc47i8uaaC3iCo/Fx1MDAxN4BcdTAwMDDXsLaoMbdU5f6DZkxG82hcdTAwMWVDZzkmX+IjXGaN/qb/XHUwMDFiT3qXPXZcYixSeWbw1MyV+rJw3H7ISHrBilqohfymnMdivJ25ssqCIVM2fjvOg5whrP7QXHUwMDA00ktcdTAwMGWxY4i4wOqfXHUwMDA1SM+XsX81gXqXlCF/3t1cdTAwMTnV7cZ1zrFp9+CocFx1MDAwMI62dMmbSovhomBruue/XHUwMDBmOUyBuqBcdTAwMTT4Ou9cdTAwMDdcYvVWf2JrkrPW575cdTAwMTil6mo8XCJcdTAwMTFIUEj1vNYsSr057Nr98f118+jmoLBfe+xcXHSfaquDrXhKRVDz8d+8XCKeJ9L/aFmnz+bUXHUwMDE5MZ2PwL1cdTAwMTBcdTAwMThQrkVoNyz6hSw6O3CSwpt7p+DuuvgozsXT5Vxi3lTA5PTgOVx1MDAwYm9iXHUwMDEx9Fx1MDAxNeMqgaGmrDa0OVx1MDAwZm1cdTAwMDKmUK/+iqXNaInjNDmmlFx1MDAwN2KILeIpppJmqXGOXHUwMDFj6+Gxtmv0Ry1599I4bV19XHUwMDE2aTJC1eX+XGJpvjVcXK0jZfozX5QwXHUwMDEz+ZJcbkSARCxLrvTtKZPd3Vxusk4rk4eB0bLAmPZcdTAwMDF4Wlx1MDAxZFDF8yVFoa5SLrSo1U9hSO10XHUwMDFmZi9QXHUwMDFjSfW6yVxyRa5cdTAwMGVFxpSzpFBk6Wx4j1x1MDAwZlx1MDAwZcFr5/ZcdNXv9/jT5D5Ts1xmgjJcdTAwMTRcdTAwMGWJcS033TKLepbKNmBcYoKIXHUwMDBiueVlV5LUXCLDUFx1MDAxMlx1MDAwMVcymPqL9WvOJC9cdTAwMTKtNveLXHKU6y9cdTAwMDWZw9tcdTAwMWKPX0+OXHUwMDFmXHUwMDFl+D2/ru6+1Heea9Xr8urIe4K3h0HY22N5XG78XHUwMDBmXGbP5Wd7e1xiIbdSi22obFx1MDAxNaksq7eXKSmNXHUwMDE5S2z04EjZkpxkqj94w2P3OWdcXG1XXHUwMDFkXj65hqdcdTAwMTfmXHLeXHUwMDA22yuPR1x1MDAwMGVeXHUwMDAyIFx1MDAwNUWSXHUwMDEwwYNcZk5cdTAwMTnKo+VZl1jKPNA/Me3oMTlrJlx1MDAwMFx1MDAwZqxb8Gkp66l0xfiERuv1sILEfuvseVx1MDAwMI/3jlx1MDAwNsVejnyaT6i8XFwtaLxgQjzeNtPsXHUwMDA0nLxcdTAwMWFcdTAwMGaUSlx1MDAwN0mAM/Wmv91cdTAwMTHUPbhcdTAwMWSYzXr18FBcdTAwMWXtXHUwMDFmXHUwMDE3XG435UNr9SVcdTAwMWWRNIlcdTAwMDcyz5MlftFcXL7fr1x1MDAxN8NCJFwi4VxiXHSkjFx1MDAwMbRcdTAwMDRcdTAwMTFfXG5cdM2dXHUwMDAyd2faNt17pGfS43PcXHUwMDBi23pzWHXTuSxk2alnlVx1MDAxY5eQkFx1MDAxMOmus5JcdTAwMTlXV6+ydrgjTl6Odu73XHUwMDE0XHUwMDA398/qeOWrm1x1MDAxNJOIPJBcdTAwMTKoK1x1MDAwNZRCXHUwMDE07CRgXGIvk0lcYoB5JcPq7Fx1MDAxYzFcdTAwMDZcdTAwMDWhUZhF0uNcXCqUMaR1w2xMvS809ZKfYWh4JssvhVx1MDAwM5MrXHUwMDExXHUwMDA1VoRAXGLNUvL9htWWeOx3m8ZcdTAwMGJcdTAwMWT29u9cdTAwMWVeL14mj92T1ccq5mlcdTAwMWPIaVx1MDAxYVZcdTAwMTdNUkw5kMRU1OFcYlx1MDAwN0LOKWHKRFxcwFx1MDAxM/tqXHUwMDEyzFx1MDAxNsDQiCdcdTAwMTDLj49R/ERcdTAwMWFcXDg+j0iygUmA28rE5vCo7lvFeqHWbb1cdTAwMTRrj1x1MDAwNXp5ctacnJRWXHUwMDFlW1xi0FSPiqbZlz8nxlx1MDAwMVx1MDAxOaGAXHUwMDBitEjV74b5vH2rXHUwMDE05EiiOohxYlxcWLmc6mlIXHUwMDAys1PdUaVf7LQre/ewTCb2a21o31x1MDAxZdDVhyNLXHJw8FSzdNFkQ8Zsh7+SqVx1MDAxNEJx3S/NdMFo/9dx3KxcdTAwMDVcdTAwMTdvXHUwMDBmudhtjp9cdTAwMGU7w1x1MDAxMZtcdTAwMWOgSbVQXHUwMDE4ZMp/YVx1MDAxOOrviCutnGH8zE6ANSQykPH7JcDcXHUwMDE2IVx1MDAwNFDscqWIJ5pcdTAwMWTuXCKn6snIRdb7TY1cdTAwMDfaYme/fV88ae+8lEtOXHUwMDBmtUe7XHUwMDAzP/9cdTAwMTKQlXA88M+0312tOGMmg3VNUndZrdv0pFx1MDAwMU5e3lx1MDAxM1xuSoVUrmt2XHUwMDFid1fs91x1MDAxYvaQ31VReVAs7eGzq/HZ6oA2oVxygmBcdTAwMWPI2oVLUpaYMogrTY/JXHUwMDExQClcdTAwMTXdc45cdTAwMTfofViRxrZ2pb+H6W5359ypiPPCblxyXHUwMDFkTewsRKRcdTAwMWWPXGLkVcLr0KOYPjd9XHKPTZ/bPMTElFx1MDAxOS24jOtvpjI5408xY1x1MDAxMuut56tTmTGtbF/TXHUwMDE16cPzT1X3icFcZpSi6Vx0l1x1MDAxMGGJstdrXHUwMDFjVa9y7UavV1wiZ6Xy6VO94eSeLldcdTAwMDdcdTAwMDUpmp4wLjCCitgwjCybl6BoPl3vU5ZcdTAwMDdUYNeYXHUwMDAzlIE4MzpcdTAwMTLgh0R5uW5Pzlx1MDAwMnm0TZzD2/epcY7kh1x1MDAxOFx1MDAxYf5N/zeeXHUwMDFkX9ucXHUwMDE2jINrVO46w+3nKrxutlx1MDAwZbKxI6Fp7CiW0Vx1MDAwZve7Om1cdTAwMDRcdTAwMTHAXHUwMDAwpLHkmLz2jpJcdTAwMTDMOINZ7Oi5nDbsXFxVL+927o8vK7Vrk7XvusVbv0gnIDlzOW3L77L7oZVhf+8uO1x1MDAwMVx1MDAxM8u8sISK4nimNZ7e3f7WuN69uq10K07rYdg1zrqt09XvW2dIpuk8zlx1MDAxM9y5L8pPQKm8bIrQJj+xXHUwMDEyvL2k/Fx1MDAwNFx1MDAwM4lcdTAwMGJKUEikhJxnXHUwMDBmpDzxuvFcXGlcdTAwMWNcdTAwMTe7p1apxM529+QxWn1cXFx1MDAxMpbRXHUwMDE2+SyLXCJrs+JcdTAwMDdcdTAwMTSVXHUwMDE3RJiQaFx0cZQ0Ql3RXHUwMDBlvIUyXHUwMDFmMe16X5f+mNGB995b0L653t4r7Fx1MDAwYsAthkX5uHVwVo5cdTAwMWHXZq9njezwUpY86CNqN3parVx1MDAxNSr7jXvzJlx1MDAwNXkletoxn/xcIs4/7kxy17xL0Fx1MDAxMI3x0LZzXHUwMDFkw2l01sjcRpJcdTAwMTKiXGaauFx1MDAxZSGqvU1cIpxcIlx1MDAwMVx1MDAxY1PJwHJeifhZ4dDJ9uT1uU3tvnF7d2VcdTAwMWVcdTAwMWLnR9R8ispkjMNcdTAwMDdw6D00Me/R0N6tsbTW7V9R5CDmyF3pK2piezcwecUohFx1MDAxOJFQLpSXW3b48+Rs73D7rP59v6Qt3rsm7pI+91SrLKK8NcNMe3NttERSXG45h7/E4PF1/+z6tP44fKhdn5RbXHUwMDE1yLqrXHUwMDA1gXjbTHKSXHUwMDBm5vM5zVx1MDAwYsG1tUl+iH9aXHUwMDA2RVx1MDAxNEVccrNcdTAwMWYkx6ndpuapnKhF+ti+PP81y3FI4TKlV9Q0XHUwMDA0gtmXXHUwMDAx4CZ+XHUwMDFhXHUwMDE37Vxuu+7dY9ruXHUwMDE1wcPOwzpIqFwiNlx1MDAxNlx1MDAxMlFBsopoXHUwMDA2/yHCVz5bxpTXx9U1SaZ8+IVWzlmfuqby8Vlp76hcdTAwMTIki6+z7/XppFhTuzUwaJnwartEd/j+RandqfKY5HJMKYSnXHUwMDFiSbCMLlx1MDAxN42ZY1x1MDAxY9PMXHUwMDA36Sdb8bOD5utpVlx1MDAxMSXLQLmpcS+LwMmrZjOpzFAgM9WffJ0ln1x1MDAxZSxcdTAwMGb59UGNJ1nIuaTR93ZRXHUwMDE5XHUwMDEzZYRUzCN5d1x1MDAxY1x0+otLXtJ67UqIJFx1MDAwMdGVdtydMLnRXHJcdTAwMDFcdTAwMGWY5CzTXHUwMDEyXHUwMDA2c1xun7I4NVx1MDAwN+OrlmzPaZLlftDsXHUwMDAxOLDGp1x1MDAxMkJ/yLfQ0PmXeffDZsqY926lR1x1MDAwZjNcdTAwMTZcdTAwMDf1XHUwMDE4rfHo3lx1MDAxNJBcdTAwMDdcXFx1MDAxOYpcdTAwMThcdTAwMTDEOGRa4MCVI2Pkavr3XHLT9Fcwnp00hfTsrDaFXHUwMDFjzFx1MDAwM1x1MDAwMZhbXHUwMDA3XHUwMDAzOIFC0shcdTAwMTQgXGaGSFx1MDAxMY/Maa44uVx1MDAxZTBMeGdnalx0ZpqCcrsgXHUwMDAzXG6KgZg1cGBM8Vx1MDAwMtFcdTAwMDC3UVBpXG5cbnJ3ZXFcdTAwMTAtrfKMrcSCK1x1MDAwNDFcdTAwMTOcXHUwMDEy8vn6yauqXWhcdTAwMTnUz9VPPFBPkYOYzFx1MDAxYUJcdFxiXHLBs4aQYF9mTlx07s9QaunLa+hcdTAwMWFcdTAwMDXkqUtcdTAwMTmEIUxcdTAwMDFcdTAwMDJEaFx1MDAwN71rlGBHXGLiXHUwMDFmXHUwMDE3PaeWS29cdTAwMTVcYs5JXGLkLmvPuVx1MDAxMlxc992W0UktW6ulp1TStFx1MDAxYdViXHUwMDEwb3mpaExcdTAwMWbq79L1zS6W5sRutJqm1Vx1MDAxMPbSbHFmXHUwMDE3idbP+FZcdTAwMTdxbXNMPt/k97Jk/nS+SqtcdKhcdTAwMWaeo3DWXHUwMDAw7r9U9m3ETC0oYdBMXHUwMDAzbNZcYl3a3Vx1MDAwZtFsweXpwPTVa1x1MDAwM4ZcdTAwMWQmXHUwMDA0u8+PIUaUmlx1MDAxM9ps3/XNxzXOqfPS8+xBnaeMIcwhXHUwMDAxXHUwMDAwKr9cdTAwMTRwrVp2KVrv2/tN3zJGo3NHXHTz9DK2nizzeScuXGLrfdzx3lx1MDAwNFxcTWK6k//3v2///Vx1MDAxZl5cdTAwMWRcdTAwMDdGIn0=<!-- payload-end -->
  <defs>
    <style>
      @font-face {
        font-family: "Virgil";
        src: url("https://excalidraw.com/Virgil.woff2");
      }
      @font-face {
        font-family: "Cascadia";
        src: url("https://excalidraw.com/Cascadia.woff2");
      }
    </style>
  </defs>
  <rect x="0" y="0" width="2236.097811074868" height="875.25" fill="#ffffff"></rect><g stroke-linecap="round" transform="translate(10 295) rotate(0 457 143)"><path d="M-0.12 -0.6 C268.3 2.2, 536.36 0.84, 914.31 -0.05 M0.17 -0.05 C258.94 1.75, 517.82 2.04, 914.07 -0.32 M913.08 0.5 C913.05 60.15, 912.81 123.6, 915.03 285.12 M913.94 -0.03 C914.14 92.76, 914.28 186.71, 914.26 286.58 M913.62 286.66 C645.12 286.33, 373.91 287.52, 0.43 285.9 M913.96 285.6 C575.55 282.5, 237.2 282.84, -0.04 286.24 M-1.08 286.31 C1.45 214.48, 1.33 146.31, 1.32 0.47 M0.06 286.39 C-0.97 183.85, -1.14 80.65, -0.7 0.39" stroke="#000000" stroke-width="1" fill="none"></path></g><g transform="translate(15 242.5) rotate(0 53 23)"><text x="0" y="33" font-family="Virgil, Segoe UI Emoji" font-size="36px" fill="#e67700" text-anchor="start" style="white-space: pre;" direction="ltr">animal</text></g><g transform="translate(209 306) rotate(0 31.5 18)"><text x="0" y="26" font-family="Virgil, Segoe UI Emoji" font-size="28px" fill="#1864ab" text-anchor="start" style="white-space: pre;" direction="ltr">nome</text></g><g transform="translate(354 305) rotate(0 48 18)"><text x="0" y="26" font-family="Virgil, Segoe UI Emoji" font-size="28px" fill="#1864ab" text-anchor="start" style="white-space: pre;" direction="ltr">especie</text></g><g transform="translate(506 305) rotate(0 31.5 18)"><text x="0" y="26" font-family="Virgil, Segoe UI Emoji" font-size="28px" fill="#1864ab" text-anchor="start" style="white-space: pre;" direction="ltr">sexo</text></g><g transform="translate(622 307) rotate(0 36.5 18)"><text x="0" y="26" font-family="Virgil, Segoe UI Emoji" font-size="28px" fill="#1864ab" text-anchor="start" style="white-space: pre;" direction="ltr">idade</text></g><g transform="translate(753 308) rotate(0 76.5 18)"><text x="0" y="26" font-family="Virgil, Segoe UI Emoji" font-size="28px" fill="#1864ab" text-anchor="start" style="white-space: pre;" direction="ltr">localizacao</text></g><g stroke-linecap="round"><g transform="translate(12.712990211695569 351) rotate(0 454.6756936250254 0.0323002171888902)"><path d="M-1.14 -0.52 C150.5 -0.39, 758.64 0.19, 910.49 0.24 M0.46 1.81 C151.86 1.62, 757.34 -1.62, 909.34 -1.75" stroke="#000000" stroke-width="1" fill="none"></path></g></g><g stroke-linecap="round"><g transform="translate(326 295) rotate(0 -0.08150295951401176 142.40463513694704)"><path d="M0.89 -0.6 C0.75 47.14, 0.12 237.76, -0.07 285.41 M-0.1 1.7 C-0.48 49.16, -0.88 235.99, -1.06 283.5" stroke="#000000" stroke-width="1" fill="none"></path></g></g><g stroke-linecap="round"><g transform="translate(480 296) rotate(0 -0.4983978128801141 141.9146466228925)"><path d="M0.19 0.77 C0.17 48.22, 0.09 236.48, 0.22 283.7 M-1.17 0.13 C-1.35 47.32, -0.92 234.92, -0.62 281.94" stroke="#000000" stroke-width="1" fill="none"></path></g></g><g stroke-linecap="round"><g transform="translate(598 296) rotate(0 0.4838247888442311 139.88743287140505)"><path d="M1.11 0.2 C1.19 46.85, -0.31 232.64, -0.69 279.32 M0.24 -0.73 C0.81 46.11, 1.52 233.41, 1.66 280.51" stroke="#000000" stroke-width="1" fill="none"></path></g></g><g stroke-linecap="round"><g transform="translate(726 298) rotate(0 -0.17014899216599133 140.87139937588015)"><path d="M-1.09 0.6 C-0.86 47.44, 0.44 235.02, 0.75 281.88 M0.54 -0.14 C0.73 46.31, 0.21 233.57, 0.19 280.22" stroke="#000000" stroke-width="1" fill="none"></path></g></g><g stroke-linecap="round" transform="translate(1608 141) rotate(0 256.5 143)"><path d="M0.41 -0.24 C168.11 0.99, 337.43 1.46, 512.58 0.47 M-0.31 -0.2 C125.76 1.8, 250.95 2.09, 513.03 -0.06 M514.08 -0.28 C511.34 80.93, 511.28 166.12, 512.23 285.01 M513.59 0.33 C510.47 75.74, 510.76 152.07, 512.42 286.3 M513.17 285.62 C373.76 284.97, 234.64 283.82, 0.66 285.7 M513.26 285.66 C406.61 286.87, 301.24 287.1, -0.3 285.84 M1.39 286.72 C0.05 216.21, 0.46 144.93, -0.01 1.2 M0.63 285.64 C-1.75 215.83, -1.25 147.5, 0.31 0.41" stroke="#000000" stroke-width="1" fill="none"></path></g><g transform="translate(1613 88.5) rotate(0 93.5 23)"><text x="0" y="33" font-family="Virgil, Segoe UI Emoji" font-size="36px" fill="#e67700" text-anchor="start" style="white-space: pre;" direction="ltr">cuidadores</text></g><g stroke-linecap="round"><g transform="translate(1608.1980294110253 195) rotate(0 255.93555558249363 -0.16360979374498186)"><path d="M-0.65 -0.44 C84.93 -0.27, 426.88 -0.04, 512.52 -0.1 M1.2 -1.71 C86.68 -1.25, 426.07 1.08, 511.29 1.38" stroke="#000000" stroke-width="1" fill="none"></path></g></g><g transform="translate(1619 154) rotate(0 80 18)"><text x="0" y="26" font-family="Virgil, Segoe UI Emoji" font-size="28px" fill="#862e9c" text-anchor="start" style="white-space: pre;" direction="ltr">cuidador_id</text></g><g stroke-linecap="round"><g transform="translate(1794 144.4999999999999) rotate(0 -0.24241975233303492 139.85936161747202)"><path d="M1.03 -1.02 C1.04 45.75, -0.01 232.87, -0.37 279.82 M0.1 1.06 C-0.03 48, -1.69 233.94, -1.51 280.74" stroke="#000000" stroke-width="1" fill="none"></path></g></g><g transform="translate(23 305) rotate(0 64 18)"><text x="0" y="26" font-family="Virgil, Segoe UI Emoji" font-size="28px" fill="#862e9c" text-anchor="start" style="white-space: pre;" direction="ltr">animal_id</text></g><g stroke-linecap="round"><g transform="translate(165 295.5) rotate(0 0.4395371286877321 142.2492896350566)"><path d="M-0.72 -0.7 C-0.67 46.46, -0.93 236.4, -0.72 284.12 M1.11 1.55 C1.63 49.34, 1.79 238.19, 1.62 285.2" stroke="#000000" stroke-width="1" fill="none"></path></g></g><g transform="translate(1836 154) rotate(0 31.5 18)"><text x="0" y="26" font-family="Virgil, Segoe UI Emoji" font-size="28px" fill="#1864ab" text-anchor="start" style="white-space: pre;" direction="ltr">nome</text></g><g stroke-linecap="round"><g transform="translate(1944 143.5000000000001) rotate(0 0.27754778897383403 140.57932155901565)"><path d="M0.28 0.81 C0.3 47.58, -0.72 233.44, -0.74 279.97 M-1.03 0.19 C-0.55 47.13, 1.49 234.19, 1.59 280.97" stroke="#000000" stroke-width="1" fill="none"></path></g></g><g stroke-linecap="round" transform="translate(1662.9009852944873 579.25) rotate(0 199.5 143)"><path d="M0.6 1.05 C88.82 -0.54, 177.58 -2.29, 398.77 0.64 M-0.55 0.07 C85.56 1.52, 171.12 1.37, 398.49 0.23 M398.7 -1.13 C400.55 69.29, 401.63 137.58, 398.6 287.14 M398.52 0.35 C398.17 70.99, 397.18 142.05, 398.91 286.34 M399.36 286.91 C309.79 286.28, 220.32 286.32, 0.64 286.53 M399.15 285.86 C261.65 285.47, 123.67 285.96, 0.08 285.98 M0.93 286.89 C-0.36 207.31, 0.48 131.07, -0.89 0.64 M-0.68 286.4 C-1.66 187.6, -1.23 89.21, -0.35 0.5" stroke="#000000" stroke-width="1" fill="none"></path></g><g transform="translate(1667.9009852944873 526.75) rotate(0 75 23)"><text x="0" y="33" font-family="Virgil, Segoe UI Emoji" font-size="36px" fill="#e67700" text-anchor="start" style="white-space: pre;" direction="ltr">gerentes</text></g><g stroke-linecap="round"><g transform="translate(1661.0990147055127 640.25) rotate(0 201.40699484880088 0.2666390121976292)"><path d="M1.11 0.56 C68.08 0.63, 335.97 1.21, 402.58 1.07 M0.24 -0.19 C67.06 -0.48, 334.99 -0.67, 402.15 -0.49" stroke="#000000" stroke-width="1" fill="none"></path></g></g><g transform="translate(1680.9009852944873 592.25) rotate(0 73.5 18)"><text x="0" y="26" font-family="Virgil, Segoe UI Emoji" font-size="28px" fill="#862e9c" text-anchor="start" style="white-space: pre;" direction="ltr">gerente_id</text></g><g stroke-linecap="round"><g transform="translate(1848.9009852944873 582.75) rotate(0 0.2774462842103276 141.37761821204793)"><path d="M0.99 1.07 C0.66 47.77, -0.8 234.27, -0.85 280.76 M0.05 0.59 C0 47.42, 1.37 235.47, 1.41 282.16" stroke="#000000" stroke-width="1" fill="none"></path></g></g><g transform="translate(1912.9009852944873 590.25) rotate(0 31.5 18)"><text x="0" y="26" font-family="Virgil, Segoe UI Emoji" font-size="28px" fill="#1864ab" text-anchor="start" style="white-space: pre;" direction="ltr">nome</text></g><g transform="translate(1958 154) rotate(0 73.5 18)"><text x="0" y="26" font-family="Virgil, Segoe UI Emoji" font-size="28px" fill="#c92a2a" text-anchor="start" style="white-space: pre;" direction="ltr">gerente_id</text></g><g stroke-linecap="round" transform="translate(1076.5000000000002 292) rotate(0 180 143)"><path d="M0.71 0.43 C106.18 -0.3, 210.93 0.44, 359.44 -0.69 M0.11 0.52 C127.57 -1.43, 254.75 -2.24, 360.35 -0.41 M360.86 -1.11 C359.94 76.96, 359.75 156.08, 359.13 287 M359.9 0.19 C359.01 73.04, 358.1 146.84, 359.83 286.19 M358.87 286.12 C287.51 288.76, 214.94 287.31, -0.6 285.44 M360.52 285.79 C281.29 287.02, 200.81 286.73, -0.42 286.62 M-1.34 286.73 C-0.78 221.34, -0.49 156.2, 0.05 1.37 M0.55 285.45 C-1.4 207.87, -1.98 131.05, 0.39 -0.37" stroke="#000000" stroke-width="1" fill="none"></path></g><g transform="translate(1081.0000000000002 239.5) rotate(0 141.5 23)"><text x="0" y="33" font-family="Virgil, Segoe UI Emoji" font-size="36px" fill="#e67700" text-anchor="start" style="white-space: pre;" direction="ltr">cuidador_animal</text></g><g stroke-linecap="round"><g transform="translate(1076.4678321961317 351.0000000000002) rotate(0 178.04161184933037 -0.08157264734879277)"><path d="M-0.97 0.06 C58.45 0.09, 297.71 1.02, 357.05 0.94 M0.72 -0.95 C60.02 -1.31, 297.17 -0.96, 356.63 -0.69" stroke="#000000" stroke-width="1" fill="none"></path></g></g><g transform="translate(1088.0000000000002 304) rotate(0 80 18)"><text x="0" y="26" font-family="Virgil, Segoe UI Emoji" font-size="28px" fill="#c92a2a" text-anchor="start" style="white-space: pre;" direction="ltr">cuidador_id</text></g><g stroke-linecap="round"><g transform="translate(1272.0000000000002 294.5000000000002) rotate(0 0.6111504434701374 140.81632984990256)"><path d="M-0.39 0.64 C-0.17 47.31, 0.17 233.86, 0.37 280.45 M1.61 -0.07 C1.79 46.72, -0.19 234.84, -0.38 281.7" stroke="#000000" stroke-width="1" fill="none"></path></g></g><g transform="translate(1289.0000000000002 304) rotate(0 64 18)"><text x="0" y="26" font-family="Virgil, Segoe UI Emoji" font-size="28px" fill="#c92a2a" text-anchor="start" style="white-space: pre;" direction="ltr">animal_id</text></g><g stroke-linecap="round" transform="translate(620 29) rotate(0 24.5 25.112500000000008)"><path d="M4.23 10.3 C4.23 10.3, 4.23 10.3, 4.23 10.3 M4.23 10.3 C4.23 10.3, 4.23 10.3, 4.23 10.3 M3.92 18.24 C4.68 16.05, 7.71 10.74, 14.41 2.85 M2.56 18.42 C7.07 13.4, 9.4 8.94, 14.51 4.32 M0.83 26.99 C8.89 19.75, 17.21 8.24, 19.48 4.56 M1.38 27.49 C7.27 19.67, 13.9 10.62, 20.79 3.21 M0.81 30.02 C10.38 20.1, 19.63 7.08, 27.81 3.85 M2.36 31.83 C11.73 19.9, 21.69 10.13, 26.2 3.85 M3.14 34.97 C12.6 22.16, 26.6 10.07, 30.96 1.85 M2.95 35.45 C13.64 25.25, 22.57 14.36, 31.7 4.29 M5.08 39.28 C11.58 32.1, 17.55 25.68, 36.95 4.73 M4.95 38.89 C14.66 29.54, 23.88 17.69, 36.07 3.99 M6.5 43.16 C15.52 32.3, 28.74 18.74, 40.95 6.68 M7.86 44.08 C14.61 33.94, 22.57 25.55, 40.08 5.56 M10.44 45.77 C21.04 35.25, 30.3 21.01, 41.58 8.73 M11.02 45.35 C22.17 32.79, 30.98 21.31, 41.63 9.53 M13.76 48.43 C25.97 35, 33.59 26.68, 45.67 12.51 M14.92 46.5 C20.17 39.66, 27.39 33, 44.03 12.91 M19.63 50.31 C29.07 34.58, 40.34 24.78, 45.47 15.93 M17.38 49.3 C25.24 41.68, 30.83 34.36, 47.92 16.73 M20.07 51.06 C32.31 40.04, 43.02 27.8, 47.16 21.37 M22.73 50 C29.02 42.48, 35.83 35.64, 47.48 21.06 M29.21 50.3 C33.33 40.91, 42.13 37.62, 46.73 28.33 M28.69 49.64 C34.2 44.55, 38.89 37.83, 48.85 27.51 M35.25 49.84 C35.52 44.36, 42.01 42.01, 47.26 33.89 M33.08 50.11 C39.03 44.12, 42.76 38.04, 49.19 32.55 M6.66 42.64 C6.66 42.64, 6.66 42.64, 6.66 42.64 M6.66 42.64 C6.66 42.64, 6.66 42.64, 6.66 42.64 M18.88 50.14 C13.71 44.07, 7.37 38.88, 5.16 33.54 M21.02 49.68 C16.34 45.78, 9.72 41.7, 3.29 35 M25.14 50.98 C18.86 41.75, 11.35 35.69, 2.44 27.5 M26.19 48.97 C18.87 42.54, 10.24 34.45, 1.37 26.97 M31.54 47.52 C24.87 41.11, 15.81 34.03, 3.02 21.79 M31.17 47.44 C25.09 43.58, 20.17 38.77, 3.89 23.29 M36.83 48 C26.31 38.78, 18.01 33.08, 4.25 18.19 M36.98 47.44 C24 35.83, 11.52 25.14, 3.48 19.08 M39.62 43.35 C28.93 34.08, 20.18 27.57, 6.98 14.28 M39.41 44.72 C30.82 36.56, 20.62 29.4, 5.08 14.63 M41.71 42.31 C31.2 31.16, 16.46 19.41, 4.02 9.45 M42.02 42.45 C27.3 28.56, 13 15.5, 5.09 9.18 M45.95 40.45 C33.15 29.28, 21.4 20.48, 8.58 7.79 M44.62 38.02 C35.31 29.69, 25.85 22.46, 9.4 6.69 M45.72 34.75 C37.01 26.65, 24.74 14.59, 11.68 5.48 M46.44 34.51 C38.67 27.99, 29.5 20.28, 13.51 5.06 M49.07 30.58 C38.96 22.9, 32.31 16.12, 14.57 1.7 M48.89 31.49 C40.38 24.11, 30.84 15.78, 16.58 3.91 M48.96 24.91 C43.17 19.43, 37.72 17.17, 18.75 0.4 M49.5 27.09 C39.67 17.62, 30.02 8.88, 20.13 2.18 M47.89 21.28 C44.35 15.29, 37.89 11.97, 25.56 2.14 M49.18 20.82 C42.94 17.19, 38.64 11.98, 27.26 0.76 M46.74 15.64 C45.6 13.15, 40.91 11.78, 33.7 1.87 M48.62 14.28 C45.02 12.28, 42.46 10.61, 32.87 2.22" stroke="#be4bdb" stroke-width="0.5" fill="none"></path><path d="M19.71 1.14 C24.49 -0.23, 31.93 0.71, 36.49 3.13 C41.05 5.55, 45.18 10.73, 47.08 15.65 C48.97 20.57, 49.27 27.41, 47.85 32.64 C46.42 37.87, 43.05 44.2, 38.52 47.04 C33.98 49.89, 25.94 50.46, 20.62 49.72 C15.3 48.98, 9.95 46.45, 6.61 42.59 C3.28 38.73, 0.96 32, 0.61 26.57 C0.26 21.13, 1.13 14.43, 4.51 9.98 C7.88 5.54, 17.77 1.55, 20.85 -0.09 C23.92 -1.74, 22.83 -0.5, 22.94 0.12 M20.1 1.89 C24.71 0.85, 31.85 1.73, 36.13 4.13 C40.41 6.53, 43.95 11.57, 45.78 16.31 C47.6 21.04, 48.5 27.74, 47.07 32.56 C45.64 37.37, 41.4 42.46, 37.2 45.19 C33 47.92, 27.1 49.3, 21.87 48.93 C16.64 48.56, 9.23 46.74, 5.84 42.95 C2.44 39.16, 1.41 31.74, 1.52 26.19 C1.63 20.63, 3.36 13.77, 6.5 9.61 C9.64 5.46, 18.28 2.89, 20.36 1.28 C22.45 -0.32, 19.21 -0.14, 19.01 0.01" stroke="#000000" stroke-width="1" fill="none"></path></g><g transform="translate(682 38) rotate(0 95.5 18)"><text x="0" y="26" font-family="Virgil, Segoe UI Emoji" font-size="28px" fill="#862e9c" text-anchor="start" style="white-space: pre;" direction="ltr">PRIMARY KEY</text></g><g stroke-linecap="round" transform="translate(617.5 92.88749999999999) rotate(0 24.5 25.11250000000001)"><path d="M2.14 15.11 C2.14 15.11, 2.14 15.11, 2.14 15.11 M2.14 15.11 C2.14 15.11, 2.14 15.11, 2.14 15.11 M0.99 21.62 C5.95 17.44, 12.37 9.54, 14.9 7.16 M2.83 21.2 C6.05 16.65, 10.91 10.96, 15.01 4.9 M0.24 26.6 C5.86 21.9, 9.34 16.89, 21.19 5.66 M2.26 28.81 C8.09 18.29, 16.41 10.57, 21.29 4.57 M0.68 32.65 C8.76 27.6, 13.05 20.6, 31.96 2.35 M2.07 34.43 C9.47 23.7, 18.01 14.83, 30.57 1.78 M3.46 37.51 C10.77 26.43, 21.58 20.12, 33.71 2.53 M5.16 36.13 C14.23 23.58, 26.73 11.43, 33.61 3.95 M7.47 38.91 C15.58 26.31, 28.29 17.93, 35.53 5.34 M6.59 39.29 C14.76 30.54, 23.69 20.49, 36.08 6.19 M10.57 42.09 C18.92 32.91, 26.88 21.44, 41.94 6.88 M10.46 42.78 C20 29.83, 30.51 18.73, 40.07 8.2 M12.07 45.89 C22.57 35.3, 33.18 18.83, 42.05 11.07 M13.03 47.07 C25.5 32.83, 36.31 18.86, 42.85 10.04 M14.69 45.99 C27.05 36.78, 33.7 25.96, 47.4 12.61 M16.33 48.19 C26.91 35.44, 35.73 25.02, 47.43 12.92 M19.84 49.37 C29.5 38.47, 37.54 27.07, 47.27 15.16 M20.15 48.08 C28.46 39.67, 36.97 29.61, 47.48 16.18 M24.09 49.94 C34.91 40.46, 41.93 29.8, 49.16 23.26 M26.09 49.1 C31.01 42.4, 37.18 35.04, 48.51 21.12 M29.77 51.27 C33.14 44.07, 37.3 41.3, 51.4 27.05 M28.89 50.52 C34.21 45.49, 38.9 40.41, 50.09 26.5 M11.92 45.73 C11.92 45.73, 11.92 45.73, 11.92 45.73 M11.92 45.73 C11.92 45.73, 11.92 45.73, 11.92 45.73 M20.16 46.95 C18.82 43.66, 12.15 39.84, 0.3 32.94 M21.01 48.75 C14.93 42.56, 9.19 38.77, 2.41 31.85 M27.74 49.44 C22.47 43.9, 17.79 37.4, 1.59 25.62 M28.62 50.2 C24.09 46.02, 17.27 39.75, 1.44 26.73 M32.41 46.24 C25.33 40.28, 15.91 34.97, 3.39 20.11 M31.88 47.32 C23.75 40.08, 13.75 31.61, 2.8 21.47 M36.26 45.64 C26.28 39.25, 16.43 30.97, 1.92 17.79 M36.84 45.25 C28.43 39.12, 20.67 30.95, 2.04 17.18 M39.99 42.27 C23.96 31.97, 13.3 20.62, 3.11 11.53 M38.45 42.84 C27.58 33.97, 17.79 23.38, 4.62 12.44 M42.01 39.49 C33.85 29.32, 22.28 21.72, 7.37 10.91 M43.3 39.84 C31.96 31.37, 20.89 21.84, 7.34 10.3 M45.47 36.45 C34.41 26.19, 22.47 18.84, 10.45 6.58 M45.3 37.91 C31.02 25.76, 17.28 13.01, 10.82 7.54 M44.61 33.89 C37.12 26.09, 28.8 17.67, 12.73 3.36 M45.74 33.1 C34.51 21.95, 23.35 12.04, 13.48 3.58 M47.8 29.22 C39.96 21.09, 30.3 16.41, 17.05 2.05 M46.9 28.92 C37.27 19.4, 25.75 10.96, 15.01 1.17 M48.35 23.68 C38.4 15.27, 28.09 7.7, 19.52 1.78 M48.61 24.27 C40.66 17.23, 33.08 10.71, 19.81 0.54 M47.32 16.74 C40.12 9.18, 29.55 1.2, 25.27 0.62 M47.63 17.71 C40.64 12.29, 33.72 7.17, 24.5 -1.12" stroke="#fa5252" stroke-width="0.5" fill="none"></path><path d="M29.46 0.67 C34.42 1.63, 40.68 5.9, 43.88 10 C47.09 14.09, 48.97 20.06, 48.7 25.24 C48.44 30.42, 45.68 36.9, 42.29 41.1 C38.91 45.29, 33.44 49.63, 28.41 50.43 C23.38 51.23, 16.7 48.83, 12.11 45.9 C7.53 42.98, 2.52 38.07, 0.9 32.88 C-0.71 27.69, 0.48 19.72, 2.43 14.77 C4.39 9.82, 7.7 5.44, 12.64 3.17 C17.58 0.9, 28.21 1.23, 32.06 1.15 C35.91 1.06, 35.85 2.18, 35.73 2.66 M18.8 1.56 C23.27 -0.24, 30.23 -1, 34.68 1.04 C39.12 3.08, 43.22 8.47, 45.47 13.82 C47.71 19.17, 49.31 27.66, 48.15 33.14 C46.99 38.62, 42.84 43.66, 38.53 46.71 C34.21 49.76, 27.52 52.21, 22.25 51.42 C16.99 50.64, 10.6 46.24, 6.96 41.99 C3.33 37.73, 0.84 31.16, 0.44 25.87 C0.04 20.58, 1.55 14.46, 4.55 10.24 C7.55 6.02, 16.34 1.86, 18.43 0.53 C20.53 -0.79, 16.82 1.86, 17.13 2.28" stroke="#000000" stroke-width="1" fill="none"></path></g><g transform="translate(679.5 101.88749999999999) rotate(0 97.5 18)"><text x="0" y="26" font-family="Virgil, Segoe UI Emoji" font-size="28px" fill="#c92a2a" text-anchor="start" style="white-space: pre;" direction="ltr">FOREING KEY</text></g><g stroke-linecap="round" transform="translate(586 10) rotate(0 168 78)"><path d="M-0.65 -0.26 C80.4 -3.01, 162.95 -2.03, 335.82 -0.77 M-0.54 -0.22 C90.1 1.63, 179.66 0.69, 335.35 -0.21 M335.24 0.85 C333.6 34.61, 334.46 68.19, 337.19 154.26 M336.8 -0.93 C335.28 36.41, 336.16 73.51, 336.47 155.53 M335.32 154.74 C238.83 156.86, 140.57 156.25, -0.65 157.05 M335.98 155.53 C259.93 156.59, 184.51 156.14, 0.19 155.67 M1.71 154.39 C1.06 106.33, 1.05 57.14, 1.52 -1.28 M0.7 156.62 C-0.28 95.39, 0.92 37.21, -0.06 0.74" stroke="#000000" stroke-width="1" fill="none"></path></g><g stroke-linecap="round"><g transform="translate(1610 171) rotate(0 -309.77538089229506 73.66207792724386)"><path d="M-1.16 1.16 C-99.51 1.72, -502.11 -23.34, -590.89 2.65 C-679.67 28.65, -543.63 131.38, -533.83 157.13 M0.44 0.73 C-97.48 1, -500.01 -25.34, -588.65 0.87 C-677.28 27.08, -540.92 131.83, -531.37 157.99" stroke="#0b7285" stroke-width="1" fill="none"></path></g><g transform="translate(1610 171) rotate(0 -309.77538089229506 73.66207792724386)"><path d="M-555.26 141.26 C-550.09 145.22, -546.5 151.8, -532.77 157.52 M-556.56 142.23 C-548.88 148.31, -540.7 152.15, -532.34 157.21" stroke="#0b7285" stroke-width="1" fill="none"></path></g><g transform="translate(1610 171) rotate(0 -309.77538089229506 73.66207792724386)"><path d="M-539.42 128.22 C-538.07 135.12, -538.24 144.79, -532.77 157.52 M-540.71 129.19 C-537.92 139.25, -534.62 147.1, -532.34 157.21" stroke="#0b7285" stroke-width="1" fill="none"></path></g></g><g stroke-linecap="round"><g transform="translate(1661 624) rotate(0 229.6972635391146 -218.58000363744796)"><path d="M-1.15 0.77 C-14.26 -21.61, -167.97 -111.79, -77.79 -133.89 C12.4 -155.99, 452.74 -81.17, 539.94 -131.84 C627.13 -182.51, 461.15 -387.03, 445.38 -437.93 M0.44 0.13 C-12.35 -22.07, -165.27 -110.01, -75.49 -132.3 C14.3 -154.58, 452.25 -82.74, 539.14 -133.57 C626.02 -184.41, 461.69 -386.75, 445.82 -437.31" stroke="#0b7285" stroke-width="1" fill="none"></path></g><g transform="translate(1661 624) rotate(0 229.6972635391146 -218.58000363744796)"><path d="M469.78 -418.98 C460.21 -425.28, 453.56 -431.82, 444.27 -436.86 M467.79 -417.92 C462.09 -423.38, 456.25 -428.74, 446.37 -438.03" stroke="#0b7285" stroke-width="1" fill="none"></path></g><g transform="translate(1661 624) rotate(0 229.6972635391146 -218.58000363744796)"><path d="M451.85 -409 C448.89 -418.83, 448.89 -429.07, 444.27 -436.86 M449.86 -407.94 C449.21 -416.03, 448.41 -424.19, 446.37 -438.03" stroke="#0b7285" stroke-width="1" fill="none"></path></g></g><g stroke-linecap="round"><g transform="translate(157 299) rotate(0 565.4415687056929 20.78125461248672)"><path d="M-0.59 0.88 C12.94 -7.38, -47.07 -40.95, 80.49 -49.98 C208.05 -59, 625.89 -79.46, 764.78 -53.27 C903.66 -27.08, 852.3 91.36, 913.81 107.16 C975.32 122.96, 1097.3 52.34, 1133.82 41.53 M1.3 0.3 C14.69 -8.24, -47.91 -42.31, 79.28 -51.56 C206.46 -60.82, 625.22 -81.36, 764.42 -55.23 C903.62 -29.1, 853.08 89.07, 914.48 105.22 C975.87 121.37, 1096.14 52.3, 1132.79 41.67" stroke="#0b7285" stroke-width="1" fill="none"></path></g><g transform="translate(157 299) rotate(0 565.4415687056929 20.78125461248672)"><path d="M1112.16 61.11 C1117.83 58.43, 1122.71 53.55, 1134.72 43.04 M1110.9 60.95 C1117.1 56.35, 1122.45 51.72, 1133.6 42.01" stroke="#0b7285" stroke-width="1" fill="none"></path></g><g transform="translate(157 299) rotate(0 565.4415687056929 20.78125461248672)"><path d="M1104.29 42.15 C1111.81 44.12, 1118.6 43.85, 1134.72 43.04 M1103.03 42 C1111.28 42.32, 1118.68 42.63, 1133.6 42.01" stroke="#0b7285" stroke-width="1" fill="none"></path></g></g></svg>